<?xml version="1.0" encoding="UTF-8" standalone="no"?>
<!-- Generator: Adobe Illustrator 15.0.0, SVG Export Plug-In  -->

<svg
   version="1.1"
   x="0px"
   y="0px"
   width="647px"
   height="545px"
   viewBox="-0.002 0 647 545"
   enable-background="new -0.002 0 647 545"
   xml:space="preserve"
   id="svg293"
   sodipodi:docname="logo_rs2.svg"
   inkscape:version="1.1.2 (b8e25be833, 2022-02-05)"
   xmlns:inkscape="http://www.inkscape.org/namespaces/inkscape"
   xmlns:sodipodi="http://sodipodi.sourceforge.net/DTD/sodipodi-0.dtd"
   xmlns="http://www.w3.org/2000/svg"
   xmlns:svg="http://www.w3.org/2000/svg"><sodipodi:namedview
   id="namedview295"
   pagecolor="#ffffff"
   bordercolor="#666666"
   borderopacity="1.0"
   inkscape:pageshadow="2"
   inkscape:pageopacity="0.0"
   inkscape:pagecheckerboard="0"
   showgrid="false"
   inkscape:zoom="1.0068163"
   inkscape:cx="264.69576"
   inkscape:cy="228.44287"
   inkscape:window-width="1680"
   inkscape:window-height="1027"
   inkscape:window-x="-8"
   inkscape:window-y="-8"
   inkscape:window-maximized="1"
   inkscape:current-layer="svg293" />
<defs
   id="defs153">
<clipPath
   clipPathUnits="userSpaceOnUse"
   id="clipPath8852"><ellipse
     style="fill:#d7f4d7;stroke-width:0.939882"
     id="ellipse8854"
     cx="328.68356"
     cy="273.5535"
     rx="260.56058"
     ry="260.91171" /></clipPath><clipPath
   clipPathUnits="userSpaceOnUse"
   id="clipPath8856"><ellipse
     style="fill:#d7f4d7;stroke-width:0.939882"
     id="ellipse8858"
     cx="328.68356"
     cy="273.5535"
     rx="260.56058"
     ry="260.91171" /></clipPath><clipPath
   clipPathUnits="userSpaceOnUse"
   id="clipPath8860"><ellipse
     style="fill:#d7f4d7;stroke-width:0.939882"
     id="ellipse8862"
     cx="328.68356"
     cy="273.5535"
     rx="260.56058"
     ry="260.91171" /></clipPath><clipPath
   clipPathUnits="userSpaceOnUse"
   id="clipPath8864"><ellipse
     style="fill:#d7f4d7;stroke-width:0.939882"
     id="ellipse8866"
     cx="328.68356"
     cy="273.5535"
     rx="260.56058"
     ry="260.91171" /></clipPath><clipPath
   clipPathUnits="userSpaceOnUse"
   id="clipPath8868"><ellipse
     style="fill:#d7f4d7;stroke-width:0.939882"
     id="ellipse8870"
     cx="328.68356"
     cy="273.5535"
     rx="260.56058"
     ry="260.91171" /></clipPath><clipPath
   clipPathUnits="userSpaceOnUse"
   id="clipPath8872"><ellipse
     style="fill:#d7f4d7;stroke-width:0.939882"
     id="ellipse8874"
     cx="328.68356"
     cy="273.5535"
     rx="260.56058"
     ry="260.91171" /></clipPath><clipPath
   clipPathUnits="userSpaceOnUse"
   id="clipPath8876"><ellipse
     style="fill:#d7f4d7;stroke-width:0.939882"
     id="ellipse8878"
     cx="328.68356"
     cy="273.5535"
     rx="260.56058"
     ry="260.91171" /></clipPath><clipPath
   clipPathUnits="userSpaceOnUse"
   id="clipPath8880"><ellipse
     style="fill:#d7f4d7;stroke-width:0.939882"
     id="ellipse8882"
     cx="328.68356"
     cy="273.5535"
     rx="260.56058"
     ry="260.91171" /></clipPath><clipPath
   clipPathUnits="userSpaceOnUse"
   id="clipPath8884"><ellipse
     style="fill:#d7f4d7;stroke-width:0.939882"
     id="ellipse8886"
     cx="328.68356"
     cy="273.5535"
     rx="260.56058"
     ry="260.91171" /></clipPath><clipPath
   clipPathUnits="userSpaceOnUse"
   id="clipPath8888"><ellipse
     style="fill:#d7f4d7;stroke-width:0.939882"
     id="ellipse8890"
     cx="328.68356"
     cy="273.5535"
     rx="260.56058"
     ry="260.91171" /></clipPath><clipPath
   clipPathUnits="userSpaceOnUse"
   id="clipPath8892"><ellipse
     style="fill:#d7f4d7;stroke-width:0.939882"
     id="ellipse8894"
     cx="328.68356"
     cy="273.5535"
     rx="260.56058"
     ry="260.91171" /></clipPath><clipPath
   clipPathUnits="userSpaceOnUse"
   id="clipPath8896"><ellipse
     style="fill:#d7f4d7;stroke-width:0.939882"
     id="ellipse8898"
     cx="328.68356"
     cy="273.5535"
     rx="260.56058"
     ry="260.91171" /></clipPath><clipPath
   clipPathUnits="userSpaceOnUse"
   id="clipPath8900"><ellipse
     style="fill:#d7f4d7;stroke-width:0.939882"
     id="ellipse8902"
     cx="328.68356"
     cy="273.5535"
     rx="260.56058"
     ry="260.91171" /></clipPath><clipPath
   clipPathUnits="userSpaceOnUse"
   id="clipPath8904"><ellipse
     style="fill:#d7f4d7;stroke-width:0.939882"
     id="ellipse8906"
     cx="328.68356"
     cy="273.5535"
     rx="260.56058"
     ry="260.91171" /></clipPath><clipPath
   clipPathUnits="userSpaceOnUse"
   id="clipPath8908"><ellipse
     style="fill:#d7f4d7;stroke-width:0.939882"
     id="ellipse8910"
     cx="328.68356"
     cy="273.5535"
     rx="260.56058"
     ry="260.91171" /></clipPath><clipPath
   clipPathUnits="userSpaceOnUse"
   id="clipPath8912"><ellipse
     style="fill:#d7f4d7;stroke-width:0.939882"
     id="ellipse8914"
     cx="328.68356"
     cy="273.5535"
     rx="260.56058"
     ry="260.91171" /></clipPath><clipPath
   clipPathUnits="userSpaceOnUse"
   id="clipPath8916"><ellipse
     style="fill:#d7f4d7;stroke-width:0.939882"
     id="ellipse8918"
     cx="328.68356"
     cy="273.5535"
     rx="260.56058"
     ry="260.91171" /></clipPath><clipPath
   clipPathUnits="userSpaceOnUse"
   id="clipPath8920"><ellipse
     style="fill:#d7f4d7;stroke-width:0.939882"
     id="ellipse8922"
     cx="328.68356"
     cy="273.5535"
     rx="260.56058"
     ry="260.91171" /></clipPath><clipPath
   clipPathUnits="userSpaceOnUse"
   id="clipPath8924"><ellipse
     style="fill:#d7f4d7;stroke-width:0.939882"
     id="ellipse8926"
     cx="328.68356"
     cy="273.5535"
     rx="260.56058"
     ry="260.91171" /></clipPath><clipPath
   clipPathUnits="userSpaceOnUse"
   id="clipPath8928"><ellipse
     style="fill:#d7f4d7;stroke-width:0.939882"
     id="ellipse8930"
     cx="328.68356"
     cy="273.5535"
     rx="260.56058"
     ry="260.91171" /></clipPath><clipPath
   clipPathUnits="userSpaceOnUse"
   id="clipPath8932"><ellipse
     style="fill:#d7f4d7;stroke-width:0.939882"
     id="ellipse8934"
     cx="328.68356"
     cy="273.5535"
     rx="260.56058"
     ry="260.91171" /></clipPath><clipPath
   clipPathUnits="userSpaceOnUse"
   id="clipPath8936"><ellipse
     style="fill:#d7f4d7;stroke-width:0.939882"
     id="ellipse8938"
     cx="328.68356"
     cy="273.5535"
     rx="260.56058"
     ry="260.91171" /></clipPath><clipPath
   clipPathUnits="userSpaceOnUse"
   id="clipPath8940"><ellipse
     style="fill:#d7f4d7;stroke-width:0.939882"
     id="ellipse8942"
     cx="328.68356"
     cy="273.5535"
     rx="260.56058"
     ry="260.91171" /></clipPath><clipPath
   clipPathUnits="userSpaceOnUse"
   id="clipPath8944"><ellipse
     style="fill:#d7f4d7;stroke-width:0.939882"
     id="ellipse8946"
     cx="328.68356"
     cy="273.5535"
     rx="260.56058"
     ry="260.91171" /></clipPath><clipPath
   clipPathUnits="userSpaceOnUse"
   id="clipPath8948"><ellipse
     style="fill:#d7f4d7;stroke-width:0.939882"
     id="ellipse8950"
     cx="328.68356"
     cy="273.5535"
     rx="260.56058"
     ry="260.91171" /></clipPath><clipPath
   clipPathUnits="userSpaceOnUse"
   id="clipPath8952"><ellipse
     style="fill:#d7f4d7;stroke-width:0.939882"
     id="ellipse8954"
     cx="328.68356"
     cy="273.5535"
     rx="260.56058"
     ry="260.91171" /></clipPath><clipPath
   clipPathUnits="userSpaceOnUse"
   id="clipPath8956"><ellipse
     style="fill:#d7f4d7;stroke-width:0.939882"
     id="ellipse8958"
     cx="328.68356"
     cy="273.5535"
     rx="260.56058"
     ry="260.91171" /></clipPath><clipPath
   clipPathUnits="userSpaceOnUse"
   id="clipPath8960"><ellipse
     style="fill:#d7f4d7;stroke-width:0.939882"
     id="ellipse8962"
     cx="328.68356"
     cy="273.5535"
     rx="260.56058"
     ry="260.91171" /></clipPath><clipPath
   clipPathUnits="userSpaceOnUse"
   id="clipPath8964"><ellipse
     style="fill:#d7f4d7;stroke-width:0.939882"
     id="ellipse8966"
     cx="328.68356"
     cy="273.5535"
     rx="260.56058"
     ry="260.91171" /></clipPath><clipPath
   clipPathUnits="userSpaceOnUse"
   id="clipPath8968"><ellipse
     style="fill:#d7f4d7;stroke-width:0.939882"
     id="ellipse8970"
     cx="328.68356"
     cy="273.5535"
     rx="260.56058"
     ry="260.91171" /></clipPath><clipPath
   clipPathUnits="userSpaceOnUse"
   id="clipPath8972"><ellipse
     style="fill:#d7f4d7;stroke-width:0.939882"
     id="ellipse8974"
     cx="328.68356"
     cy="273.5535"
     rx="260.56058"
     ry="260.91171" /></clipPath><clipPath
   clipPathUnits="userSpaceOnUse"
   id="clipPath8976"><ellipse
     style="fill:#d7f4d7;stroke-width:0.939882"
     id="ellipse8978"
     cx="328.68356"
     cy="273.5535"
     rx="260.56058"
     ry="260.91171" /></clipPath><clipPath
   clipPathUnits="userSpaceOnUse"
   id="clipPath8980"><ellipse
     style="fill:#d7f4d7;stroke-width:0.939882"
     id="ellipse8982"
     cx="328.68356"
     cy="273.5535"
     rx="260.56058"
     ry="260.91171" /></clipPath><clipPath
   clipPathUnits="userSpaceOnUse"
   id="clipPath8984"><ellipse
     style="fill:#d7f4d7;stroke-width:0.939882"
     id="ellipse8986"
     cx="328.68356"
     cy="273.5535"
     rx="260.56058"
     ry="260.91171" /></clipPath><clipPath
   clipPathUnits="userSpaceOnUse"
   id="clipPath8988"><ellipse
     style="fill:#d7f4d7;stroke-width:0.939882"
     id="ellipse8990"
     cx="328.68356"
     cy="273.5535"
     rx="260.56058"
     ry="260.91171" /></clipPath><clipPath
   clipPathUnits="userSpaceOnUse"
   id="clipPath8992"><ellipse
     style="fill:#d7f4d7;stroke-width:0.939882"
     id="ellipse8994"
     cx="328.68356"
     cy="273.5535"
     rx="260.56058"
     ry="260.91171" /></clipPath><clipPath
   clipPathUnits="userSpaceOnUse"
   id="clipPath8996"><ellipse
     style="fill:#d7f4d7;stroke-width:0.939882"
     id="ellipse8998"
     cx="328.68356"
     cy="273.5535"
     rx="260.56058"
     ry="260.91171" /></clipPath><clipPath
   clipPathUnits="userSpaceOnUse"
   id="clipPath9000"><ellipse
     style="fill:#d7f4d7;stroke-width:0.939882"
     id="ellipse9002"
     cx="328.68356"
     cy="273.5535"
     rx="260.56058"
     ry="260.91171" /></clipPath><clipPath
   clipPathUnits="userSpaceOnUse"
   id="clipPath9004"><ellipse
     style="fill:#d7f4d7;stroke-width:0.939882"
     id="ellipse9006"
     cx="328.68356"
     cy="273.5535"
     rx="260.56058"
     ry="260.91171" /></clipPath><clipPath
   clipPathUnits="userSpaceOnUse"
   id="clipPath9008"><ellipse
     style="fill:#d7f4d7;stroke-width:0.939882"
     id="ellipse9010"
     cx="328.68356"
     cy="273.5535"
     rx="260.56058"
     ry="260.91171" /></clipPath><clipPath
   clipPathUnits="userSpaceOnUse"
   id="clipPath9012"><ellipse
     style="fill:#d7f4d7;stroke-width:0.939882"
     id="ellipse9014"
     cx="328.68356"
     cy="273.5535"
     rx="260.56058"
     ry="260.91171" /></clipPath><clipPath
   clipPathUnits="userSpaceOnUse"
   id="clipPath9016"><ellipse
     style="fill:#d7f4d7;stroke-width:0.939882"
     id="ellipse9018"
     cx="328.68356"
     cy="273.5535"
     rx="260.56058"
     ry="260.91171" /></clipPath><clipPath
   clipPathUnits="userSpaceOnUse"
   id="clipPath9020"><ellipse
     style="fill:#d7f4d7;stroke-width:0.939882"
     id="ellipse9022"
     cx="328.68356"
     cy="273.5535"
     rx="260.56058"
     ry="260.91171" /></clipPath><clipPath
   clipPathUnits="userSpaceOnUse"
   id="clipPath9024"><ellipse
     style="fill:#d7f4d7;stroke-width:0.939882"
     id="ellipse9026"
     cx="328.68356"
     cy="273.5535"
     rx="260.56058"
     ry="260.91171" /></clipPath><clipPath
   clipPathUnits="userSpaceOnUse"
   id="clipPath9028"><ellipse
     style="fill:#d7f4d7;stroke-width:0.939882"
     id="ellipse9030"
     cx="328.68356"
     cy="273.5535"
     rx="260.56058"
     ry="260.91171" /></clipPath><clipPath
   clipPathUnits="userSpaceOnUse"
   id="clipPath9032"><ellipse
     style="fill:#d7f4d7;stroke-width:0.939882"
     id="ellipse9034"
     cx="328.68356"
     cy="273.5535"
     rx="260.56058"
     ry="260.91171" /></clipPath><clipPath
   clipPathUnits="userSpaceOnUse"
   id="clipPath9036"><ellipse
     style="fill:#d7f4d7;stroke-width:0.939882"
     id="ellipse9038"
     cx="328.68356"
     cy="273.5535"
     rx="260.56058"
     ry="260.91171" /></clipPath><clipPath
   clipPathUnits="userSpaceOnUse"
   id="clipPath9040"><ellipse
     style="fill:#d7f4d7;stroke-width:0.939882"
     id="ellipse9042"
     cx="328.68356"
     cy="273.5535"
     rx="260.56058"
     ry="260.91171" /></clipPath><clipPath
   clipPathUnits="userSpaceOnUse"
   id="clipPath9044"><ellipse
     style="fill:#d7f4d7;stroke-width:0.939882"
     id="ellipse9046"
     cx="328.68356"
     cy="273.5535"
     rx="260.56058"
     ry="260.91171" /></clipPath><clipPath
   clipPathUnits="userSpaceOnUse"
   id="clipPath9048"><ellipse
     style="fill:#d7f4d7;stroke-width:0.939882"
     id="ellipse9050"
     cx="328.68356"
     cy="273.5535"
     rx="260.56058"
     ry="260.91171" /></clipPath><clipPath
   clipPathUnits="userSpaceOnUse"
   id="clipPath9052"><ellipse
     style="fill:#d7f4d7;stroke-width:0.939882"
     id="ellipse9054"
     cx="328.68356"
     cy="273.5535"
     rx="260.56058"
     ry="260.91171" /></clipPath><clipPath
   clipPathUnits="userSpaceOnUse"
   id="clipPath9056"><ellipse
     style="fill:#d7f4d7;stroke-width:0.939882"
     id="ellipse9058"
     cx="328.68356"
     cy="273.5535"
     rx="260.56058"
     ry="260.91171" /></clipPath><clipPath
   clipPathUnits="userSpaceOnUse"
   id="clipPath9060"><ellipse
     style="fill:#d7f4d7;stroke-width:0.939882"
     id="ellipse9062"
     cx="328.68356"
     cy="273.5535"
     rx="260.56058"
     ry="260.91171" /></clipPath><clipPath
   clipPathUnits="userSpaceOnUse"
   id="clipPath9064"><ellipse
     style="fill:#d7f4d7;stroke-width:0.939882"
     id="ellipse9066"
     cx="328.68356"
     cy="273.5535"
     rx="260.56058"
     ry="260.91171" /></clipPath><clipPath
   clipPathUnits="userSpaceOnUse"
   id="clipPath9068"><ellipse
     style="fill:#d7f4d7;stroke-width:0.939882"
     id="ellipse9070"
     cx="328.68356"
     cy="273.5535"
     rx="260.56058"
     ry="260.91171" /></clipPath><clipPath
   clipPathUnits="userSpaceOnUse"
   id="clipPath9072"><ellipse
     style="fill:#d7f4d7;stroke-width:0.939882"
     id="ellipse9074"
     cx="328.68356"
     cy="273.5535"
     rx="260.56058"
     ry="260.91171" /></clipPath><clipPath
   clipPathUnits="userSpaceOnUse"
   id="clipPath9076"><ellipse
     style="fill:#d7f4d7;stroke-width:0.939882"
     id="ellipse9078"
     cx="328.68356"
     cy="273.5535"
     rx="260.56058"
     ry="260.91171" /></clipPath><clipPath
   clipPathUnits="userSpaceOnUse"
   id="clipPath9080"><ellipse
     style="fill:#d7f4d7;stroke-width:0.939882"
     id="ellipse9082"
     cx="328.68356"
     cy="273.5535"
     rx="260.56058"
     ry="260.91171" /></clipPath><clipPath
   clipPathUnits="userSpaceOnUse"
   id="clipPath9084"><ellipse
     style="fill:#d7f4d7;stroke-width:0.939882"
     id="ellipse9086"
     cx="328.68356"
     cy="273.5535"
     rx="260.56058"
     ry="260.91171" /></clipPath><clipPath
   clipPathUnits="userSpaceOnUse"
   id="clipPath9088"><ellipse
     style="fill:#d7f4d7;stroke-width:0.939882"
     id="ellipse9090"
     cx="328.68356"
     cy="273.5535"
     rx="260.56058"
     ry="260.91171" /></clipPath><clipPath
   clipPathUnits="userSpaceOnUse"
   id="clipPath9092"><ellipse
     style="fill:#d7f4d7;stroke-width:0.939882"
     id="ellipse9094"
     cx="328.68356"
     cy="273.5535"
     rx="260.56058"
     ry="260.91171" /></clipPath><clipPath
   clipPathUnits="userSpaceOnUse"
   id="clipPath9096"><ellipse
     style="fill:#d7f4d7;stroke-width:0.939882"
     id="ellipse9098"
     cx="328.68356"
     cy="273.5535"
     rx="260.56058"
     ry="260.91171" /></clipPath><clipPath
   clipPathUnits="userSpaceOnUse"
   id="clipPath9100"><ellipse
     style="fill:#d7f4d7;stroke-width:0.939882"
     id="ellipse9102"
     cx="328.68356"
     cy="273.5535"
     rx="260.56058"
     ry="260.91171" /></clipPath><clipPath
   clipPathUnits="userSpaceOnUse"
   id="clipPath9104"><ellipse
     style="fill:#d7f4d7;stroke-width:0.939882"
     id="ellipse9106"
     cx="328.68356"
     cy="273.5535"
     rx="260.56058"
     ry="260.91171" /></clipPath><clipPath
   clipPathUnits="userSpaceOnUse"
   id="clipPath9108"><ellipse
     style="fill:#d7f4d7;stroke-width:0.939882"
     id="ellipse9110"
     cx="328.68356"
     cy="273.5535"
     rx="260.56058"
     ry="260.91171" /></clipPath><clipPath
   clipPathUnits="userSpaceOnUse"
   id="clipPath9112"><ellipse
     style="fill:#d7f4d7;stroke-width:0.939882"
     id="ellipse9114"
     cx="328.68356"
     cy="273.5535"
     rx="260.56058"
     ry="260.91171" /></clipPath><clipPath
   clipPathUnits="userSpaceOnUse"
   id="clipPath9116"><ellipse
     style="fill:#d7f4d7;stroke-width:0.939882"
     id="ellipse9118"
     cx="328.68356"
     cy="273.5535"
     rx="260.56058"
     ry="260.91171" /></clipPath><clipPath
   clipPathUnits="userSpaceOnUse"
   id="clipPath9120"><ellipse
     style="fill:#d7f4d7;stroke-width:0.939882"
     id="ellipse9122"
     cx="328.68356"
     cy="273.5535"
     rx="260.56058"
     ry="260.91171" /></clipPath><clipPath
   clipPathUnits="userSpaceOnUse"
   id="clipPath9124"><ellipse
     style="fill:#d7f4d7;stroke-width:0.939882"
     id="ellipse9126"
     cx="328.68356"
     cy="273.5535"
     rx="260.56058"
     ry="260.91171" /></clipPath></defs>





































































<path
   fill="#060305"
   d="m 298.94391,14.469918 c 34.07,-3.5 68.9,-1.19 101.82,8.559999 69.63,19.84 129.75,70.28 161.51,135.320003 15.7,31.52 24.841,66.329 26.45,101.51 -0.229,7.358 1.101,14.7 0.13,22.04 -0.22,14.488 -2.17,28.881 -4.84,43.108 -1.931,-1.81 -3.899,-3.568 -5.939,-5.238 2.931,-18.78 5.062,-37.852 3.841,-56.87 -0.262,-4.972 -0.421,-9.94 -0.91,-14.892 -3.979,-39.479 -17.311,-78.01 -38.891,-111.33 -21.711,-33.829 -51.561,-62.399003 -86.301,-82.609003 -36,-20.96 -77.239,-33.09 -118.92,-34.08 -5.01,-0.74 -10.09,-0.2 -15.13,-0.37 l -0.67,0.49 c -43.75,0.62 -87.051,14.05 -124.351,36.74 -36.56,22.38 -67.37,54.100003 -88.55,91.380003 -16.340003,28.47 -26.899003,60.199 -31.109003,92.739 -1.971,2.4 -4.891,3.74 -7.49,5.33 4.75,-48.488 24.04,-95.319 54.140003,-133.58 31.42,-40.090003 74.79,-70.750003 123.17,-86.729003 16.901,-5.589 34.37,-9.429 52.04,-11.518999 z"
   id="path157"
   clip-path="url(#clipPath9120)"
   transform="translate(-4.9661964)" /><path
   fill="#030203"
   d="m 310.42391,35.429917 c 5.171,-2.61 12.369,-3 16.671,1.43 2.938,2.65 3.409,6.82 4.39,10.44 -2.81,0.24 -5.63,0.4 -8.439,0.37 -0.959,-1.78 -1,-4.61 -3.219,-5.35 -1.791,-0.46 -3.631,0.05 -5.41,0.25 -0.142,1.5 -0.221,3 -0.26,4.51 5.078,1.87 10.778,2.93 14.76,6.9 4.449,4.2 4.101,11.38 1.438,16.46 -3.97,7.46 -15.101,8.489 -21.3,3.35 -3.311,-3.13 -3.939,-7.81 -4.62,-12.07 3.021,0 6.04,0 9.062,-0.03 0.66,1.83 0.92,3.89 2.17,5.47 1.229,1.85 3.608,1.13 5.479,1.23 1.318,-2.32 2.061,-5.061 1.189,-7.67 -2.909,-2.74 -7.239,-2.7 -10.67,-4.49 -7.92,-3.46 -8.761,-16.47 -1.241,-20.8 z"
   id="path159"
   clip-path="url(#clipPath9116)"
   transform="translate(-4.9661964)" /><path
   fill="#040205"
   d="m 350.08491,35.859917 c 4.949,-1 11.129,-0.85 14.779,3.21 3.01,3.06 3.391,7.62 3.35,11.68 -2.608,-0.07 -5.209,-0.29 -7.789,-0.61 -0.85,-1.86 -1.359,-3.84 -2.131,-5.73 -1.709,-0.25 -3.75,-1.65 -5.311,-0.37 -2.021,0.93 -2.279,4.08 -0.119,5 4.239,2.25 9.061,3.99 12.021,8 3.76,4.66 2.648,11.64 -0.53,16.3 -5.108,7.23 -17.55,6.851 -22.42,-0.399 -2.261,-3.351 -2.101,-7.59 -2.239,-11.44 2.971,0.36 5.939,0.77 8.93,0.93 0.53,2.29 0.301,5.01 2.08,6.79 1.021,0.601 2.2,0.851 3.33,1.181 0.58,-0.32 1.721,-0.95 2.291,-1.271 1.229,-2.18 1.488,-4.66 1.039,-7.1 -4.011,-2.54 -8.931,-3.78 -12.271,-7.26 -4.7,-5.861 -2.65,-16.591 4.99,-18.911 z"
   id="path161"
   clip-path="url(#clipPath9112)"
   transform="translate(-4.9661964)" /><path
   fill="#040205"
   d="m 269.89491,42.069917 c 3.681,-2.91 8.75,-3.62 13.229,-2.46 5.24,1.86 8.75,6.98 9.479,12.39 -2.938,0.75 -5.892,1.48 -8.88,1.92 -0.46,-1.45 -0.91,-2.9 -1.359,-4.34 -1.58,-0.36 -3.15,-0.71 -4.729,-1.06 -1.57,1.09 -3.58,1.97 -4,4.05 0.92,5.55 2.1,11.06 3.399,16.52 0.71,3.7 5.919,4.891 8.399,2.21 1.681,-1.46 1.05,-3.939 1.391,-5.88 2.71,-0.85 5.46,-1.7 8.29,-2.08 1.909,2.62 1.75,6.22 0.979,9.23 -1.959,5.27 -7.43,8.14 -12.579,9.46 -6.801,0.95 -14.479,-3.67 -15.54,-10.74 -1.2,-6.18 -2.471,-12.35 -3.521,-18.55 -0.858,-4.36 2.161,-8.21 5.442,-10.67 z"
   id="path163"
   clip-path="url(#clipPath9108)"
   transform="translate(-4.9661964)" /><path
   fill="#040205"
   d="m 409.88491,63.119917 c 2.22,-4.65 6.449,-9.25 12.028,-9.01 7.74,0.05 16.5,6.42 15.2,14.92 -1.12,5.85 -4.511,10.91 -6.62,16.42 -2.398,5 -4.148,10.34 -7.029,15.100003 -2.729,-0.710003 -5.199,-2.109003 -7.761,-3.239003 0.642,-3.82 2.75,-7.12 4.189,-10.65 2.359,-5.59 5.05,-11.04 7.28,-16.68 0.92,-1.88 -0.271,-3.69 -0.87,-5.44 -2.38,-0.35 -5.682,-1.16 -6.96,1.58 -4.051,8.89 -7.881,17.88 -11.939,26.76 -3.311,-0.33 -6.271,-1.95 -9.091,-3.58 3.792,-8.752 7.762,-17.431 11.573,-26.181 z"
   id="path165"
   clip-path="url(#clipPath9104)"
   transform="translate(-4.9661964)" /><path
   fill="#050205"
   d="m 197.30491,72.739917 c 2.6,-1.561 5.17,-3.2 7.899,-4.53 6.11,9.66 11.38,19.84 17.4,29.561 4.52,-2.551 8.91,-5.311 13.52,-7.66 1.54,2.54 3,5.12 4.351,7.76 -7.261,3.910003 -14.28,8.250003 -21.49,12.271003 -7.25,-12.463003 -14.31,-25.022003 -21.68,-37.402003 z"
   id="path167"
   clip-path="url(#clipPath9100)"
   transform="translate(-4.9661964)" /><path
   fill="#040205"
   d="m 448.89491,75.829917 c 6.49,-4.32 16.431,-1.81 20.069,5.08 1.091,1.82 1.609,3.9 2.311,5.9 -0.2,2.81 -0.58,5.77 -2.34,8.09 -3.79,5.240003 -7.312,10.680003 -11.28,15.779003 -2.909,3.641 -8.05,4.41 -12.38,3.421 -8.08,-1.53 -14.05,-10.851 -10.771,-18.681003 2.079,-3.76 4.858,-7.09 7.188,-10.7 2.283,-3.049 4.092,-6.579 7.203,-8.889 z"
   id="path169"
   clip-path="url(#clipPath9096)"
   transform="translate(-4.9661964)" /><path
   fill="#fefefe"
   d="m 451.08491,85.928917 c 1.079,-1.77 2.96,-2.689 4.801,-3.5 1.521,0.671 3.04,1.36 4.54,2.101 0.81,2.26 1.84,4.939 0.238,7.13 -2.369,3.64 -4.88,7.19 -7.438,10.690003 -2.37,2.89 -6.681,3.04 -9.521,0.77 -0.398,-1.12 -0.8,-2.22 -1.199,-3.330003 1.889,-5.16 5.579,-9.34 8.579,-13.861 z"
   id="path171"
   clip-path="url(#clipPath9092)"
   transform="translate(-4.9661964)" /><path
   fill="#040204"
   d="m 173.04391,91.048917 c 4.96,-5.17 14.41,-6.29 19.591,-0.84 6.869,7.45 13.949,14.730003 20.64,22.370003 -2.18,2.01 -4.29,4.1 -6.47,6.1 -7.15,-6.8 -13.29,-14.579 -20.4,-21.409003 -1.49,-1.591 -3.8,-0.92 -5.71,-0.98 -1.23,1.89 -2.59,4.561003 -0.83,6.590003 6.33,7.17 12.97,14.08 19.58,21 -0.03,0.61 -0.05,1.23 -0.07,1.851 -2.25,1.8 -4.279,3.85 -6.41,5.79 -5.96,-6.601 -12.22,-12.931 -18.109,-19.591 -1.65,-1.68 -3.45,-4.029 -6.13,-3.27 -2.75,0.77 -4.44,4.5 -2.12,6.67 6.57,7.36 13.39,14.5 20.18,21.67 -2.01,2.44 -4.43,4.48 -6.84,6.521 -6.81,-7.07 -13.39,-14.37 -20.16,-21.471 -3.939,-3.76 -4.63,-9.92 -2.479,-14.79 1.739,-5.1 6.989,-8.029003 12.189,-8.270003 0.748,-2.811 1.458,-5.78 3.548,-7.941 z"
   id="path173"
   clip-path="url(#clipPath9088)"
   transform="translate(-4.9661964)" /><path
   d="m 252.69391,105.53992 c 35.381,-16.240003 76,-20.570003 114.051,-12.450003 36.75,7.681003 70.841,27.141003 96.439,54.551003 13.99,15.069 25.511,32.399 33.938,51.159 5.7,13.38 10.341,27.312 12.66,41.71 -19.13,-3.75 -38.021,-8.84 -56.391,-15.39 -8.72,-3.15 -17.359,-6.63 -25.51,-11.07 -1.29,-0.67 -2.44,-1.55 -3.33,-2.68 -3.69,-4.38 -7.38,-8.74 -11.08,-13.1 -0.931,-1.71 -2.931,-1.062 -4.479,-1.142 -0.341,-1.778 -0.601,-3.568 -0.83,-5.35 -3.63,-3.7 -3.551,-8.96 -3.721,-13.79 -1.5,-14.65 -0.779,-29.71 -5.1,-43.96 -5.67,-12.62 -17.29,-22.83 -31.12,-25.23 -9.771,-1.529 -19.88,-0.77 -29.38,1.95 -17.66,4.95 -33.801,14.061 -49.11,23.97 -13.829,9.091 -26.97,19.2 -39.689,29.771 -15.729,0.87 -30.27,7.54 -44.09,14.59 -9.06,4.41 -18.1,9.29 -28.05,11.37 -4.95,0.63 -9.93,1.01 -14.8,2.189 18.612,-38.228 50.843,-69.589 89.592,-87.098 z"
   id="path175"
   clip-path="url(#clipPath9084)"
   transform="translate(-4.9661964)" /><path
   fill="#040204"
   d="m 480.87491,96.909917 c 1.688,-1.7 3.159,-4.15 5.891,-3.98 4.41,5.37 11.489,8.900003 13.359,16.030003 0.641,3.891 -0.211,8.24 -3,11.15 -4.08,4.59 -8.262,9.1 -12.591,13.46 -3.46,3.64 -9.12,3.939 -13.641,2.49 -5.689,-3.07 -10.05,-8.021 -14.75,-12.37 8.011,-9.141 16.631,-17.721 24.732,-26.780003 z"
   id="path177"
   clip-path="url(#clipPath9080)"
   transform="translate(-4.9661964)" /><path
   fill="#fefffe"
   d="m 486.07391,105.73992 c 2.562,1.54 4.659,3.84 4.812,6.99 -4.54,4.91 -9.07,9.84 -13.7,14.67 -1.431,-0.03 -2.87,-0.05 -4.29,-0.08 -1.21,-1.18 -2.431,-2.36 -3.641,-3.521 5.69,-5.939 11.309,-11.949 16.819,-18.059 z"
   id="path179"
   clip-path="url(#clipPath9076)"
   transform="translate(-4.9661964)" /><path
   d="m 314.04291,138.89992 c 13.932,-8.01 28.75,-15.58 44.932,-17.431 10.26,-1.38 21.819,1.65 28.229,10.25 5.229,5.721 5.812,13.811 6.521,21.15 0.92,7.37 0.51,14.84 1.648,22.2 -2.869,0.55 -5.71,1.37 -8.63,1.6 -1.5,-0.71 -2.989,-1.399 -4.311,-2.39 -0.51,-2 -0.82,-4.04 -1.13,-6.08 -11.79,2.19 -24.221,4.63 -33.87,12.229 -4.851,3.7 -7.722,9.421 -8.722,15.36 -0.01,1.79 -0.049,3.59 0.08,5.4 1.631,1.358 3.972,1 5.939,1.488 -2.75,5.052 -5.21,10.342 -5.96,16.102 0,1 0,3 0,4 4.61,-0.72 8.53,-3.36 12.841,-4.95 -0.189,1.03 -0.561,3.09 -0.74,4.12 -0.09,1.4 -0.17,2.8 -0.238,4.2 0.898,2.22 1.988,4.35 3.25,6.38 6.209,-1.352 11.578,-4.94 17.51,-7.062 -0.17,0.86 -0.51,2.58 -0.682,3.44 0.24,0.68 0.711,2.03 0.939,2.7 6.381,-1.562 12.44,-4.3 17.812,-8.08 7.011,-4.5 13.819,-10.41 22.351,-11.521 4.761,3 6.979,9.2 12.011,12.092 8.181,4.938 17.062,8.578 25.96,12 18.279,6.79 37.09,12.148 56.17,16.158 9.92,2.17 20.029,3.65 29.649,6.99 5.38,1.95 10.801,5.24 13.181,10.69 4.479,10.71 4.42,23.38 -0.858,33.79 -4.729,8.721 -13.172,15.84 -23.052,17.738 -39.561,9.15 -79.761,15.302 -119.979,20.65 -11.95,1.319 -23.87,2.76 -35.852,3.771 -27.619,2.471 -55.351,3.859 -83.101,3.521 -9.09,0.13 -18.26,-0.08 -27.14,-2.189 -3.479,-1.319 -7.051,-2.801 -9.561,-5.659 -3.439,-3.341 -4.399,-8.2 -5.28,-12.71 -1.47,-8.279 -3.439,-16.521 -3.72,-24.961 -0.31,-7.341 2.181,-14.352 3.57,-21.471 4.31,-21.479 7.689,-43.17 13.18,-64.41 0.729,-2.6 0.319,-5.35 1.04,-7.948 2.891,-12.08 6.3,-24.021 9.42,-36.041 0.37,-1.03 0.51,-2.271 1.38,-3 14.395,-11.616 29.274,-22.706 45.213,-32.116 z"
   id="path181"
   clip-path="url(#clipPath9072)"
   transform="translate(-4.9661964)" /><path
   fill="#040204"
   d="m 479.86391,147.34992 c 11.67,-8.44 23.3,-16.931 34.989,-25.341 4.17,6.011 8.58,11.851 12.82,17.811 -2.41,1.7 -4.682,3.62 -7.29,5 -2.86,-3.24 -5.25,-6.87 -7.75,-10.391 -1.86,1.301 -3.74,2.57 -5.62,3.83 0.109,2.92 2.521,4.91 3.898,7.311 -2.21,1.649 -4.449,3.28 -6.75,4.81 -1.528,-2.13 -3,-4.3 -4.72,-6.27 -1.99,1.16 -3.851,2.51 -5.729,3.819 -0.329,0.41 -0.989,1.23 -1.319,1.641 2.54,3.43 5.08,6.859 7.471,10.41 -2.37,1.8 -4.801,3.51 -7.311,5.109 -4.149,-5.969 -8.839,-11.569 -12.689,-17.739 z"
   id="path183"
   clip-path="url(#clipPath9068)"
   transform="translate(-4.9661964)" /><path
   fill="#030205"
   d="m 138.83391,126.76992 c 0.94,-1.271 1.71,-2.73 3.021,-3.66 2.609,1.16 4.689,3.22 7,4.88 -1.82,2.53 -3.69,5.01 -5.37,7.65 9.229,6.609 18.34,13.38 27.59,19.949 -1.37,2.601 -3.18,4.92 -4.95,7.25 -9.41,-6.66 -18.63,-13.58 -28.05,-20.22 -1.6,2.37 -3.12,4.81 -4.96,7 -2.93,-0.15 -4.97,-3.03 -7.42,-4.42 3.99,-6.409 8.879,-12.199 13.139,-18.429 z"
   id="path185"
   clip-path="url(#clipPath9064)"
   transform="translate(-4.9661964)" /><path
   fill="#030104"
   d="m 115.39491,164.26992 c 1.57,-3.051 3.15,-6.101 5.06,-8.95 12.351,6.72 25.021,12.939 37.17,20.01 0.15,3.38 -2.71,6.4 -4.3,9.311 -5.11,-2.44 -9.79,-5.801 -15.13,-7.7 -0.79,1.739 -1.6,3.489 -2.39,5.25 4.819,2.88 10.159,4.88 14.729,8.2 -1.47,2.979 -3.08,5.891 -4.64,8.819 -12.67,-6.37 -25.09,-13.25 -37.63,-19.84 -0.47,-1.9 1.17,-3.65 1.84,-5.36 0.89,-1.25 1.25,-3.229 2.82,-3.779 5.08,2.27 9.779,5.33 14.859,7.63 0.94,-1.75 1.9,-3.49 2.92,-5.2 -5.079,-2.841 -10.278,-5.471 -15.308,-8.391 z"
   id="path187"
   clip-path="url(#clipPath9060)"
   transform="translate(-4.9661964)" /><path
   fill="#090307"
   d="m 497.01491,169.02992 c 1.13,-3.08 4.949,-3.271 7.38,-1.66 1.061,2.18 1.149,4.49 -0.061,6.63 -1.221,0.48 -2.431,0.96 -3.642,1.46 -2.228,-1.25 -5.517,-3.5 -3.677,-6.43 z"
   id="path189"
   clip-path="url(#clipPath9056)"
   transform="translate(-4.9661964)" /><path
   fill="#070406"
   d="m 349.50391,189.13992 c 9.181,-7.9 20.74,-11.9 32.108,-15.461 l 0.82,0.601 c 1.319,0.99 2.811,1.68 4.311,2.39 -12.631,4.99 -24.801,11.07 -37.261,16.45 -0.019,-1.34 -0.007,-2.651 0.022,-3.98 z"
   id="path191"
   clip-path="url(#clipPath9052)"
   transform="translate(-4.9661964)" /><path
   fill="#030204"
   d="m 507.61391,182.68992 c 1.67,-3.94 5.46,-6.34 9.229,-7.99 1.29,2.97 2.648,5.91 3.92,8.9 -2.59,1.39 -5.011,3.439 -4.45,6.68 1.5,0.38 3.07,1.7 4.66,0.89 9.47,-3.81 18.521,-8.58 27.88,-12.64 1.351,3.14 2.88,6.189 4.141,9.37 -6.811,3.29 -13.739,6.34 -20.551,9.63 -4.699,1.89 -9.58,4.7 -14.819,3.71 -8.039,-1.34 -13.529,-11.09 -10.01,-18.55 z"
   id="path193"
   clip-path="url(#clipPath9048)"
   transform="translate(-4.9661964)" /><path
   d="m 192.00439,207.66788 c 18.18023,-4.21844 32.85529,-20.01572 51.52952,-22.22996 -2.15919,10.16102 -4.77287,20.19076 -6.8933,30.36928 -0.63841,3.18571 -0.53201,6.5202 -1.39082,9.6534 -4.85647,21.7136 -7.29611,44.02233 -11.81817,65.82257 -1.22362,6.54559 -0.53961,13.31172 0.5396,19.82142 0.53961,4.3506 1.33762,8.69069 2.81204,12.76911 -6.22449,0.30806 -12.33498,2.74986 -17.63225,6.46944 -6.04209,4.09679 -10.57936,11.28827 -17.86787,12.63607 -9.12849,0.76142 -16.97105,-5.99509 -25.90118,-6.77314 -3.2384,-0.0184 -6.25489,1.84579 -9.5161,1.69701 0.59281,-0.50762 1.18638,-0.9986 1.78679,-1.48784 4.56767,-2.75511 9.11177,-5.94257 14.31861,-6.80114 6.35293,-0.83056 12.74539,-1.3478 19.05272,-2.55557 3.45045,-0.71678 6.62806,-2.59058 9.2577,-5.24154 3.46565,-3.36163 9.15813,-4.08717 10.73895,-9.6184 0.33365,-3.93838 -0.38,-10.2923 -4.65887,-10.81566 -3.64805,0.60213 -6.65009,3.41151 -9.46213,5.96095 -4.68167,4.2447 -8.90733,9.18955 -13.96141,12.87412 -2.27243,1.80466 -5.14527,1.27779 -7.74375,1.32155 -3.84642,-0.07 -7.50131,-1.74076 -11.31733,-2.07421 -5.76848,0.7019 -11.27856,2.96866 -16.74304,5.10239 -4.18767,1.48783 -8.46653,3.11744 -12.90423,2.86276 -6.02689,-0.20042 -11.77258,-2.72974 -17.10025,-5.81917 3.66325,-0.14004 7.3645,0.23717 11.00496,-0.45598 12.31978,-2.03833 23.46914,-8.91737 35.46972,-12.32188 3.83045,-1.29529 7.95731,0.035 11.72697,-1.65587 5.66208,-2.258 10.99736,-7.71134 11.77257,-14.85294 0.38761,-2.76561 -0.56241,-5.33869 -1.67962,-7.69296 -3.40485,-3.56117 -8.13972,-1.40732 -11.63653,0.78067 -10.09295,6.58234 -18.38391,16.20949 -28.40162,22.91962 -2.71248,1.77664 -5.81332,2.826 -8.95217,2.67984 -6.7109,-0.20917 -13.14059,-2.67109 -19.73825,-3.84998 -6.08769,-1.30404 -12.29698,-1.05023 -18.452313,-0.77017 11.590173,-6.45982 24.806763,-5.78504 37.217743,-8.40363 4.54487,-1.00472 9.50014,-1.69613 13.2166,-5.13652 1.47442,-1.22527 1.52762,-3.4824 1.77842,-5.35532 -1.55802,-5.03237 -5.16807,-9.82844 -10.12258,-9.94222 -7.68372,0.27306 -14.06781,5.87256 -20.2467,10.50235 -4.27126,3.17695 -8.58889,7.76298 -14.06857,7.01994 -5.61648,-0.8752 -11.103003,-3.00892 -16.826643,-2.92403 l -0.49401,-0.37633 c -5.51008,-0.11378 -11.0118,0.561 -16.42308,1.72413 4.56007,-3.28198 9.16573,-6.70225 14.39385,-8.38437 6.17889,-2.07334 12.72259,-1.24278 19.000283,-2.55557 10.46611,-3.41151 17.21425,-14.16766 26.56999,-19.90019 2.7976,-1.5666 5.97369,-2.87064 9.11253,-2.07422 7.89652,1.47033 12.58579,10.34306 20.1479,12.73322 6.7489,1.9088 13.8094,-1.04061 19.26628,-5.60037 2.96404,-2.37178 5.38924,-5.77629 6.19409,-9.89846 -1.36042,-4.35848 -6.08769,-5.20742 -9.59134,-4.83196 -5.87413,0.60389 -9.32534,6.80115 -14.28061,9.66216 -7.38731,-0.93471 -12.78263,-7.41291 -19.56193,-10.15927 -4.36246,-1.26903 -9.42413,-0.65639 -12.95895,2.79012 -5.63092,5.21617 -11.53697,10.44984 -18.59747,12.80411 -8.20052,3.06319 -17.053893,1.5421 -25.064413,-1.55609 8.37533,-0.98022 16.872253,-3.03868 24.130363,-8.1752 8.89973,-6.10799 15.51942,-16.96217 26.18998,-19.28843 5.93569,-1.77665 11.80221,1.28653 16.90189,4.52476 3.22245,1.85453 6.72686,4.05215 10.45015,3.23647 5.61724,-1.47033 9.69014,-6.4677 14.42501,-9.86345 2.24204,-1.67163 5.27372,-1.82041 6.97691,-4.41974 1.42882,-1.36706 0.95001,-3.61456 1.07161,-5.4796 -1.45922,-1.86504 -3.44285,-3.33537 -5.71604,-2.826 -7.38731,0.73516 -11.75737,9.02413 -18.63548,11.28126 -2.61443,0.64765 -5.09967,-0.73516 -7.53931,-1.61036 -4.05086,-1.61911 -8.29172,-2.81812 -12.61618,-2.59057 -3.95966,-0.22755 -7.72171,1.3478 -11.56813,2.1276 1.80959,-1.84579 3.59485,-3.82373 5.86805,-4.90197 5.39607,-2.81813 11.50656,-1.61036 17.16865,-3.05444 5.16047,-1.46157 9.11177,-5.76753 13.5282,-8.8911 4.61326,-3.61544 9.81934,-6.25678 15.31346,-7.47417 3.00204,-0.84457 6.13329,-0.65115 9.15053,-1.45633 z"
   id="path195"
   style="stroke-width:0.815572"
   clip-path="url(#clipPath9044)"
   transform="translate(-4.9661964)" /><path
   fill="#110506"
   d="m 356.12391,203.15992 c 8.41,-5.98 16.5,-12.79 26.149,-16.72 -2.18,2.47 -4.64,4.661 -7.239,6.649 -9.92,7.682 -19.979,15.17 -30.279,22.33 2.059,-5.37 7.22,-8.599 11.369,-12.259 z"
   id="path197"
   clip-path="url(#clipPath9040)"
   transform="translate(-4.9661964)" /><path
   fill="#020203"
   d="m 390.88491,196.02992 c 2.858,-1 5.949,-1.28 8.92,-0.58 0.229,5.41 -4.96,8.57 -8.41,11.9 -10.779,8.6 -23.33,14.618 -36.04,19.778 0.75,-5.29 2.551,-10.33 4.438,-15.29 10,-5.918 20.001,-12.119 31.092,-15.808 z"
   id="path199"
   clip-path="url(#clipPath9036)"
   transform="translate(-4.9661964)" /><path
   fill="#040104"
   d="m 538.63491,209.72992 c 2.188,-4.062 6.979,-5.65 11.29,-6.13 8.34,0.118 13.06,9.96 11.14,17.229 -1.3,4.97 -6.13,7.49 -10.529,9.24 -0.761,-2.71 -1.449,-5.44 -2.148,-8.16 1.51,-1.271 4.35,-1.82 4.34,-4.21 0.05,-1.44 -0.25,-2.85 -0.399,-4.271 -1.409,-0.43 -2.83,-0.818 -4.25,-1.13 -0.341,0.591 -1.011,1.75 -1.351,2.341 -0.21,5.899 -0.59,12.671 -5.319,16.891 -3.461,3.52 -8.851,3.43 -13.381,2.76 -7.88,-2.1 -11.51,-11.91 -8.659,-19.109 2.029,-4.391 6.689,-6.461 10.979,-8.029 0.891,2.91 1.63,5.858 2.33,8.818 -2.25,1.4 -6.189,2.472 -5.562,5.892 -0.369,1.8 1.421,2.64 2.449,3.76 2.271,-0.24 5.222,0.11 6.591,-2.189 1.179,-4.493 0.458,-9.424 2.479,-13.703 z"
   id="path201"
   clip-path="url(#clipPath9032)"
   transform="translate(-4.9661964)" /><path
   fill="#060305"
   d="m 306.02391,246.28992 c 5.859,-1.74 12.592,-1.61 17.939,1.57 5.649,3.14 7.479,11.47 3.609,16.67 -1.609,2.14 -4.289,2.97 -6.641,3.979 2.87,7.57 7.3,16.15 15.641,18.592 4.819,1.311 8.602,-3.449 13.279,-3 2.609,0.068 2.41,3.329 2.63,5.188 -4.329,6.659 -13.729,7.819 -20.489,4.489 -6.779,-3.469 -11.148,-10.279 -13.891,-17.169 -1.09,-2.75 -1.971,-5.562 -2.898,-8.36 -0.432,0.062 -1.312,0.17 -1.74,0.23 0.101,1.66 0.211,3.33 0.33,5 1.061,0.479 2.119,0.96 3.188,1.448 -0.271,1.23 -0.56,2.473 -0.869,3.7 -1.938,3.392 -4.881,6.12 -8.301,7.979 -0.979,-0.931 -2.21,-1.642 -2.851,-2.852 0.811,-2.277 2.609,-4.197 2.688,-6.72 0.142,-4.34 -0.47,-8.67 -0.39,-13.01 0.109,-2.58 -1.729,-4.58 -3.09,-6.55 2.119,-2.86 5.729,-2.36 8.858,-2.29 0.312,0.54 0.63,1.08 0.96,1.63 -0.431,2.29 -0.619,4.608 -0.699,6.938 2.851,-0.01 6.33,0.36 8.188,-2.33 2.92,-3.26 0.21,-8.318 -3.56,-9.448 -5.801,-1.972 -14.172,-0.53 -16.49,5.89 0.97,3.63 4.55,6.24 4.311,10.19 -1.54,0.579 -3.17,1.93 -4.859,1.01 -4.729,-2.44 -6.34,-8.602 -4.811,-13.43 1.199,-4.705 5.449,-8.045 9.958,-9.344 z"
   id="path205"
   clip-path="url(#clipPath9024)"
   transform="translate(-4.9661964)" /><path
   fill="#0b0506"
   d="m 379.70391,249.47992 c 1.54,-0.562 3.2,-0.19 4.801,-0.15 1.351,2.42 2.239,6.13 -0.29,8.09 -2,0.771 -4.949,0.65 -5.859,-1.64 -1.461,-2.08 -0.142,-4.66 1.348,-6.3 z"
   id="path207"
   clip-path="url(#clipPath9020)"
   transform="translate(-4.9661964)" /><path
   fill="#070306"
   d="m 349.41491,255.66992 c 1.289,-2.75 4.17,-4.21 6.818,-5.38 3.602,8.21 1.53,17.5 3.16,26.11 0.891,1.05 1.92,1.99 2.91,2.97 0.029,0.539 0.08,1.63 0.109,2.17 -3.49,1.65 -7.439,1.22 -11.17,0.96 -0.031,-0.609 -0.08,-1.841 -0.109,-2.45 0.71,-1.09 1.43,-2.18 1.979,-3.358 -0.141,-5.92 -0.949,-11.812 -0.841,-17.74 -0.957,-1.072 -3.446,-1.363 -2.856,-3.282 z"
   id="path209"
   clip-path="url(#clipPath9016)"
   transform="translate(-4.9661964)" /><path
   fill="#070306"
   d="m 363.14491,253.90992 c 2.068,-1.78 4.182,-3.68 6.939,-4.25 2.141,4.77 1.75,10.13 2.261,15.23 0.38,4.5 -0.94,9.868 2.71,13.35 1.21,0 2.42,0 3.641,0 0.479,-0.569 1.431,-1.699 1.899,-2.259 0.028,-3.021 0.028,-6.04 -0.11,-9.052 -0.89,-0.22 -2.67,-0.648 -3.56,-0.868 0.84,-3.61 4.06,-5.73 7.26,-7.052 2.181,5.08 1.148,10.75 2.2,16.07 1.068,1.11 2.148,2.22 3.239,3.33 -0.04,0.49 -0.109,1.451 -0.141,1.931 -3.229,0.603 -6.511,0.87 -9.79,0.91 -1.021,-0.771 -2.04,-1.511 -3.051,-2.271 -2.449,4.521 -8.409,3.141 -12.5,2.25 0.87,-2.41 2.88,-4.54 2.551,-7.262 -0.199,-4.329 -0.5,-8.658 -0.71,-12.988 -0.149,-1.04 -0.28,-2.07 -0.391,-3.102 -2.117,-0.368 -2.379,-2.187 -2.447,-3.967 z"
   id="path211"
   clip-path="url(#clipPath9012)"
   transform="translate(-4.9661964)" /><path
   fill="#090508"
   d="m 427.22491,252.31992 c 2.061,-3.92 9.45,-2.08 8.37,2.67 -1.36,2.34 -4.12,1.2 -6.271,1.33 2.319,3.14 6.779,6.02 5.271,10.53 -1.79,4.198 -7.03,4.54 -10.852,5.8 -0.199,0.43 -0.601,1.29 -0.801,1.729 4.131,2.12 8.7,-1.2 12.852,0.82 2.021,0.7 2.771,2.871 3.608,4.64 -1.42,6.92 -9.188,9.609 -15.47,9.13 -2.67,-0.47 -6.2,-0.85 -7.59,-3.5 -1.25,-2.42 1.04,-5.39 3.63,-4.92 2.26,1.58 4.21,3.603 6.71,4.841 2.29,-0.869 6.43,-1.25 5.68,-4.671 -1.239,-1.72 -3.55,-1.5 -5.39,-1.35 -2.771,0.22 -5.55,0.22 -8.33,0.159 -0.72,-0.719 -1.431,-1.439 -2.141,-2.149 -0.011,-0.92 -0.011,-1.83 -0.011,-2.729 1.102,-1.01 2.21,-2.021 3.34,-3 -1.271,-1.45 -3.21,-2.57 -3.55,-4.602 -0.729,-2.26 0.562,-4.358 1.409,-6.35 3.051,-1.66 6.391,-2.59 9.82,-3.06 -0.485,-1.709 -1.895,-3.799 -0.284,-5.318 z"
   id="path213"
   clip-path="url(#clipPath9008)"
   transform="translate(-4.9661964)" /><path
   fill="#070406"
   d="m 400.49391,260.58892 c 2.42,-1.52 5.619,-3.56 8.409,-1.68 3.021,2.05 2.602,6.04 2.9,9.21 -0.13,2.7 2.778,4.021 2.97,6.64 -2.51,2.67 -5.01,7.182 -9.37,5.57 0.79,-5.24 2.21,-10.95 -0.27,-15.95 -1.53,0.392 -3.03,0.8 -4.552,1.19 -0.398,2.108 -1.148,4.22 -0.851,6.398 0.261,2.91 2.971,4.57 4.301,6.979 -3.479,1.701 -7.358,1.711 -11.131,1.5 -0.39,-0.479 -1.18,-1.449 -1.569,-1.93 0.961,-1 1.932,-1.979 2.95,-2.921 0.271,-0.819 0.562,-1.619 0.84,-2.431 -0.438,-2.16 -0.641,-4.35 -0.761,-6.54 -0.75,-0.14 -2.229,-0.42 -2.979,-0.56 0.02,-1.54 0.398,-3.011 0.96,-4.42 1.71,-1.15 3.409,-2.32 5.159,-3.432 1.079,1.222 1.818,2.65 2.539,4.12 0.115,-0.432 0.346,-1.302 0.455,-1.743 z"
   id="path215"
   clip-path="url(#clipPath9004)"
   transform="translate(-4.9661964)" /><path
   fill="#070409"
   d="m 334.33491,263.42892 c 4.391,-2.158 10.391,-0.688 12.688,3.79 2.07,4.512 2.181,10.53 -1.569,14.2 -2.75,3.04 -7.449,2.7 -11.068,1.82 -7.621,-3.339 -7.721,-16.449 -0.051,-19.81 z"
   id="path219"
   clip-path="url(#clipPath8996)"
   transform="translate(-4.9661964)" /><path
   fill="#0d0506"
   d="m 272.91391,272.37992 c 1.439,-1.608 3.221,-2.64 5.431,-2.2 -0.011,1.82 0.271,3.98 -1.5,5.12 -1.57,0.38 -3.181,0.41 -4.771,0.552 0.229,3.818 0.18,7.648 0.51,11.459 0.681,0.85 1.37,1.711 2.061,2.579 -1.891,2.562 -3.83,5.931 -7.54,5.642 0.66,-4.063 2.891,-8.631 0.141,-12.4 -1.62,2.529 -5.88,2.16 -7.479,-0.188 -2.29,-2.61 -1.811,-7.21 1.13,-9.161 3.477,-2.524 8.047,-0.973 12.017,-1.403 z"
   id="path225"
   clip-path="url(#clipPath8984)"
   transform="translate(-4.9661964)" /><path
   fill="#0d0607"
   d="m 276.84491,275.29892 c 0.729,0.271 2.188,0.802 2.93,1.062 0.37,2.08 0.392,4.21 0.552,6.33 2.25,-1.142 4.561,-1.551 6.778,-0.09 0.229,1.93 0.431,3.858 0.58,5.801 0.608,0.857 1.229,1.729 1.851,2.607 -1.119,1.313 -2.271,2.592 -3.479,3.83 -0.721,-0.141 -2.148,-0.42 -2.87,-0.561 1.05,-2.91 1.858,-6.299 -0.09,-9.049 -0.931,0.329 -1.812,0.777 -2.688,1.219 0.021,1.391 0.078,2.801 0.18,4.201 0.709,1.16 1.449,2.31 2.229,3.438 -2.38,0.33 -4.779,0.54 -7.18,0.591 -0.051,-0.381 -0.15,-1.149 -0.2,-1.541 0.62,-0.948 1.24,-1.88 1.83,-2.827 -0.729,-3.07 -0.681,-6.24 -0.689,-9.371 -3.564,-0.829 -0.404,-3.709 0.266,-5.64 z"
   id="path229"
   clip-path="url(#clipPath8976)"
   transform="translate(-4.9661964)" /><path
   fill="#0e0406"
   d="m 293.46291,281.37992 c 3.062,-0.607 7.262,-0.34 7.979,3.45 1.2,4.319 -4.56,3.78 -7.26,3.899 0.142,0.438 0.431,1.318 0.58,1.76 2.312,-0.049 4.438,-1.069 6.72,-1.33 0.771,5.461 -8.699,6.291 -10.18,1.441 -1.807,-3.261 -0.367,-6.87 2.161,-9.22 z"
   id="path231"
   clip-path="url(#clipPath8972)"
   transform="translate(-4.9661964)" /><path
   fill="#070306"
   d="m 314.03391,290.59992 c 2.09,0.31 3.979,-2.37 5.949,-0.852 2.682,2.25 4.311,5.84 4.182,9.352 -0.881,0.729 -1.892,1.25 -2.881,1.8 -2.521,-2.102 -5.051,-4.3 -8.188,-5.379 -1.222,0.438 -2.45,0.879 -3.66,1.329 -0.16,1.5 -1.83,3.511 0.2,4.408 5.199,3.012 11.55,3.682 16.311,7.592 2.819,3.771 3.801,8.47 3.35,13.108 -3,11.53 -19.148,14.66 -27.469,7.021 -5.201,-4.29 -5.25,-14.16 1.01,-17.512 3.279,-2.028 8.07,-2 10.561,1.25 -0.46,1.092 -0.908,2.19 -1.359,3.29 -2.229,0.762 -4.959,0.88 -6.5,2.88 -0.771,2.82 0.371,6.183 3.211,7.342 3.76,1.658 8.858,1.278 11.83,-1.75 3.358,-3.83 2.351,-10.54 -2.201,-12.989 -4.469,-2.37 -9.68,-3.19 -13.898,-6.07 -3.311,-2.29 -3.88,-7.21 -1.488,-10.357 2.311,-3.683 6.901,-5.023 11.04,-4.463 z"
   id="path235"
   clip-path="url(#clipPath8964)"
   transform="translate(-4.9661964)" /><path
   fill="#080506"
   d="m 418.62491,295.61992 c 2.729,-2.438 6.829,0 9.619,-2.32 0.511,0 1.54,-0.01 2.051,-0.01 1.358,2.142 2.409,4.47 3.261,6.88 -2.9,2.61 -5.852,-0.06 -8.41,-1.67 -0.46,0.062 -1.399,0.159 -1.859,0.22 -0.011,0.78 -0.021,1.57 -0.011,2.37 3.29,1.5 7.312,1.88 9.92,4.602 1.99,2.12 0.57,5 -0.01,7.421 -2.63,2.26 -5.99,2.88 -9.359,2.278 -1.21,0.591 -2.489,1.75 -3.921,1.142 -2.38,-2 -3.92,-4.95 -3.818,-8.091 3.63,-1.909 6.431,1.631 9.659,2.729 2.381,0.96 1.852,-1.989 2.131,-3.271 -3.392,-1.09 -6.83,-2.102 -10.011,-3.729 -0.359,-0.58 -1.08,-1.739 -1.438,-2.318 -0.044,-2.264 0.406,-4.683 2.196,-6.233 z"
   id="path237"
   clip-path="url(#clipPath8960)"
   transform="translate(-4.9661964)" /><path
   fill="#070306"
   d="m 378.99391,298.98892 c 2.771,-1.64 6.182,-3.42 9.352,-1.64 6.108,3.438 6.85,12.71 2.909,18.068 -1.949,3.07 -6.562,3.979 -9.471,1.771 -1.71,-0.88 -1.851,-3.682 -0.319,-4.79 1.431,-0.21 2.891,-0.3 4.359,-0.279 2.33,-2.24 2.931,-5.36 1.409,-8.25 -0.56,-0.391 -1.68,-1.17 -2.239,-1.561 -2.141,0.021 -4.858,0.55 -5.351,3.04 -0.37,3.34 -0.12,6.721 0.011,10.079 -0.051,1.931 1.92,2.881 2.811,4.392 0.461,1.567 -1.051,2.64 -1.841,3.77 -1.931,1.852 -3.988,4.57 -7.021,3.762 -1.22,-2.75 0.5,-5.609 0.42,-8.42 -0.181,-4.512 -0.771,-8.99 -0.649,-13.5 -0.971,-0.472 -1.938,-0.932 -2.891,-1.392 -0.09,-0.561 -0.271,-1.681 -0.35,-2.24 1.959,-2.118 4.1,-4.5 7.18,-4.737 0.421,0.478 1.261,1.447 1.681,1.927 z"
   id="path239"
   clip-path="url(#clipPath8956)"
   transform="translate(-4.9661964)" /><path
   fill="#070406"
   d="m 398.93491,297.89992 c 4.101,-4.142 12.25,-3.352 14.819,2.141 1.011,2.13 1.641,5.82 -1.04,6.95 -3.319,1.729 -7.109,1.22 -10.689,1.25 0.091,0.51 0.29,1.55 0.391,2.06 3.95,2.92 7.642,-1.22 11.771,-1.08 0.08,1.25 0.34,2.521 0.181,3.79 -1.479,2.643 -4.699,3.271 -7.319,4.21 -4.971,0.07 -9.979,-3.118 -10.761,-8.25 -1.153,-3.833 -0.113,-8.172 2.647,-11.071 z"
   id="path241"
   clip-path="url(#clipPath8952)"
   transform="translate(-4.9661964)" /><path
   fill="#060207"
   d="m 351.69491,301.62992 c 2.521,-3.83 7.761,-4.061 11.75,-2.898 4.96,1.83 5.931,7.761 5.779,12.398 -0.87,2.71 -1.99,5.771 -4.75,7.102 -2.67,1.561 -5.83,0.96 -8.761,1.068 -6.388,-3.15 -8.399,-12.09 -4.018,-17.67 z"
   id="path243"
   clip-path="url(#clipPath8948)"
   transform="translate(-4.9661964)" /><path
   fill="#080307"
   d="m 334.31391,301.21892 c 1.851,-1.64 4.36,-2.038 6.649,-2.698 2.109,0.738 4.529,1.16 6.149,2.83 1.21,1.63 0.89,4.158 -1.011,5.148 -2.729,-1.101 -5.43,-2.568 -8.471,-2.101 -1.709,3.03 -2.471,7.54 0.711,9.898 3.398,1.67 6.6,-1.76 10.109,-1.22 0.068,1.779 0.909,4.21 -1.052,5.319 -2.659,2.54 -6.63,2.688 -10.028,1.989 -7.525,-2.724 -9.096,-14.184 -3.056,-19.165 z"
   id="path245"
   clip-path="url(#clipPath8944)"
   transform="translate(-4.9661964)" /><path
   d="m 529.303,331.25836 c 5.79278,-1.43313 9.99663,-6.32523 14.47089,-10.05844 8.11187,0.9103 15.82547,5.05133 21.50189,11.35002 4.96758,5.98022 8.3913,13.81731 8.07335,21.98348 0.46545,10.84666 -4.84221,21.27753 -12.57138,27.93716 -13.0606,11.58003 -33.71353,11.818 -46.60286,-0.20259 -7.63002,-6.87459 -11.96498,-17.93268 -10.71775,-28.62629 0.6318,-6.50304 3.1705,-12.65046 6.83514,-17.81768 6.3664,-1.35439 12.66889,-3.07149 19.01072,-4.56566 z"
   id="path251"
   style="stroke-width:0.851431"
   clip-path="url(#clipPath8932)"
   transform="translate(-4.9661964)" /><path
   fill="#050305"
   d="m 77.214907,341.02992 c 2.91,2.909 5.76,5.88 8.72,8.739 2.15,1.841 2.49,4.811 3.479,7.318 14.261003,40.32 38.880003,76.9 70.891003,105.28 28.52,25.399 62.79,44.38 99.59,54.699 41.932,11.87 86.95,12.671 129.25,2.148 59.96,-14.51 113.811,-52.108 148.562,-103.01 2.938,-0.34 5.891,-0.66 8.858,-0.79 -35.351,54.271 -91.569,94.67 -154.51,110.182 -15.13,3.948 -30.65,6.3 -46.229,7.329 -21.342,1.421 -42.842,0.149 -63.882,-3.659 -41.439,-7.472 -80.899,-25.41 -113.97,-51.439 -43.82,-34.347 -76.360003,-82.957 -90.759003,-136.797 z"
   id="path253"
   clip-path="url(#clipPath8928)"
   transform="translate(-4.9661964)" /><path
   d="m 467.9583,344.64217 c 1.14631,-0.13796 2.33681,-0.57793 3.51017,-0.27965 7.00861,5.89024 12.01142,14.39143 13.13157,23.73248 2.78775,18.25145 -9.88475,36.51221 -26.66808,41.68563 -11.32869,3.80316 -24.3403,2.23716 -34.23587,-4.73531 -7.75719,-5.2107 -13.50225,-13.58977 -15.35113,-22.99607 -2.15643,-9.43147 -0.0271,-19.68509 5.06864,-27.74071 0.6205,-1.3889 2.24481,-1.21179 3.46327,-1.45508 17.08998,-2.30241 34.09878,-5.19113 51.08143,-8.21129 z"
   id="path255"
   style="stroke-width:0.916896"
   clip-path="url(#clipPath8924)"
   transform="translate(-4.9661964)" /><path
   d="m 212.6169,375.16941 c 3.76575,-11.97539 12.9749,-22.4198 24.82035,-26.28949 1.62531,5.15646 5.60134,9.29853 10.67928,10.92343 11.16503,3.88002 23.16659,2.32181 34.74758,2.66933 5.69133,8.59222 8.65912,19.41421 6.52051,29.71868 -3.01186,18.27772 -19.92607,32.66602 -37.98809,32.64818 -13.14111,0.65747 -26.31711,-6.07692 -33.69986,-17.21638 -6.34696,-9.34925 -8.07236,-21.53033 -5.07977,-32.45375 z"
   id="path257"
   style="stroke-width:0.92869"
   clip-path="url(#clipPath8920)"
   transform="translate(-4.9661964)" /><path
   d="m 320.17985,362.08715 c 18.69026,-0.87157 37.37963,-2.25692 55.96137,-4.58723 6.58087,6.89002 10.80621,16.35807 10.42549,26.13806 -0.0961,11.50478 -6.23573,22.46735 -15.28953,29.01883 -8.52097,6.27534 -19.6314,8.75244 -29.89054,6.42213 -13.29694,-2.70647 -24.62265,-13.61491 -27.76275,-27.28486 -0.82728,-6.11937 -0.90734,-12.4681 0.88065,-18.42233 1.33521,-4.03677 3.45144,-7.71756 5.67531,-11.2846 z"
   id="path259"
   style="stroke-width:0.903389"
   clip-path="url(#clipPath8916)"
   transform="translate(-4.9661964)" /><path
   fill="#050304"
   d="m 190.76491,370.87992 c 1.55,-0.778 3.12,-1.528 4.699,-2.29 -3.55,8.602 -4.55,17.972 -4.079,27.19 -6.12,-7.091 -11.841,-14.521 -17.12,-22.261 5.63,0.231 11.239,-0.559 16.5,-2.639 z"
   id="path261"
   clip-path="url(#clipPath8912)"
   transform="translate(-4.9661964)" /><path
   fill="#040204"
   d="m 145.79391,403.91992 c 8.11,-5.05 15.73,-10.88 23.9,-15.85 1.93,2.829 3.83,5.68 5.58,8.63 -7.37,4.8 -14.58,9.819 -21.95,14.6 -3.479,2.12 -7.33,4.33 -11.57,3.813 -7.529,-0.25 -13.55,-8.011 -12.39,-15.353 0.83,-4.51 4.04,-8.47 8.22,-10.34 1.62,2.57 3.49,4.97 5.051,7.58 -1.46,2.149 -4.521,4.12 -3.181,7.102 1.611,2.278 4.441,0.898 6.34,-0.182 z"
   id="path263"
   clip-path="url(#clipPath8908)"
   transform="translate(-4.9661964)" /><path
   fill="#030204"
   d="m 168.42491,412.43092 c 3.18,-2.972 6.8,-6.541 11.55,-6 7.229,0.979 13.13,7.351 14.27,14.459 0.37,4.352 -2.3,8.189 -5.55,10.801 -7.19,6.381 -13.84,13.37 -21.28,19.471 -1.859,-1.9 -3.739,-3.771 -5.59,-5.67 3.42,-4.561 8.04,-8.09 12.26,-11.88 -2.08,-2.563 -4.29,-5 -6.54,-7.393 -4.5,3.421 -8.319,7.632 -12.619,11.28 -1.95,-1.74 -3.79,-3.59 -5.62,-5.45 -0.04,-0.358 -0.12,-1.1 -0.17,-1.47 6.278,-6.209 13.018,-11.941 19.289,-18.148 z"
   id="path265"
   clip-path="url(#clipPath8904)"
   transform="translate(-4.9661964)" /><path
   d="m 341.83491,440.63792 c 22.858,2.94 46.841,-9.67 57.061,-30.397 6.55,8.859 16,15.438 26.5,18.739 -0.029,0.21 -0.109,0.641 -0.149,0.851 -35.311,21.76 -78.011,31.28 -119.181,26.01 -15.59,-1.96 -31,-5.818 -45.529,-11.84 16.88,-3.37 31.71,-14.92 39.541,-30.2 8.647,14.88 24.647,25.109 41.757,26.837 z"
   id="path267"
   clip-path="url(#clipPath8900)"
   transform="translate(-4.9661964)" /><path
   fill="#fdfcfb"
   d="m 177.80491,416.20992 c 3.81,-0.25 8.199,3.312 6.67,7.38 -1.34,1.592 -2.99,2.892 -4.561,4.25 -2.33,-2.25 -4.59,-4.568 -6.72,-7.01 1.531,-1.55 3.071,-3.09 4.611,-4.62 z"
   id="path269"
   clip-path="url(#clipPath8896)"
   transform="translate(-4.9661964)" /><path
   fill="#040204"
   d="m 203.89491,424.86992 c 2.359,1.562 4.6,3.3 6.88,4.99 -3,7.01 -5.84,14.1 -9.09,21 -0.11,0.647 -0.351,1.938 -0.471,2.579 6.381,-5.569 13.07,-10.761 19.61,-16.142 2.16,1.79 4.39,3.49 6.67,5.131 -11.359,9.591 -23.06,18.779 -34.51,28.279 -2.16,-1.641 -4.34,-3.24 -6.54,-4.82 5.72,-13.717 11.71,-27.307 17.451,-41.017 z"
   id="path271"
   clip-path="url(#clipPath8892)"
   transform="translate(-4.9661964)" /><path
   fill="#040206"
   d="m 412.62491,454.18092 c 7.979,-4.462 15.729,-9.312 23.521,-14.08 1.609,2.5 3.149,5.051 4.53,7.698 -2.53,1.54 -5.182,2.881 -7.591,4.603 0.221,1.31 0.931,2.449 1.601,3.59 5.061,8.41 10.279,16.739 15.17,25.27 0.229,0.16 0.7,0.48 0.931,0.643 -2.551,1.479 -5.04,3.05 -7.479,4.688 -6.689,-9.398 -11.88,-19.778 -18.229,-29.408 -2.71,1.578 -5.359,3.26 -8.159,4.681 -1.436,-2.576 -2.886,-5.126 -4.295,-7.685 z"
   id="path273"
   clip-path="url(#clipPath8888)"
   transform="translate(-4.9661964)" /><path
   fill="#040205"
   d="m 233.50391,449.72992 c 8.08,-2.38 17.99,2.738 20,11.101 0.811,4.42 -1.869,8.3 -3.72,12.069 -3.791,7.688 -7.82,15.238 -11.72,22.87 -2.62,-1.149 -5.15,-2.479 -7.65,-3.852 2.511,-5.101 5.12,-10.14 7.66,-15.22 -2.96,-1.5 -5.8,-3.312 -8.979,-4.32 -2.351,4.939 -5.11,9.682 -7.381,14.67 -2.729,-0.76 -5.25,-2.068 -7.789,-3.27 0.189,-2.301 1.21,-4.381 2.289,-6.37 3.461,-6.87 7.131,-13.63 10.5,-20.55 1.37,-3.059 3.431,-6.078 6.79,-7.128 z"
   id="path275"
   clip-path="url(#clipPath8884)"
   transform="translate(-4.9661964)" /><path
   fill="#fdfcfb"
   d="m 235.74391,459.43092 c 0.57,-0.222 1.69,-0.649 2.25,-0.87 2.67,0.561 6.59,1.75 6.54,5.108 -0.649,2.13 -1.85,4.04 -2.89,6 -2.96,-1.45 -5.92,-2.898 -8.811,-4.488 0.932,-1.941 1.902,-3.861 2.911,-5.75 z"
   id="path277"
   clip-path="url(#clipPath8880)"
   transform="translate(-4.9661964)" /><path
   fill="#030103"
   d="m 381.98391,465.05992 c 7.062,-1.949 14.062,-7.552 21.631,-4.739 7.279,2.09 11.42,11.26 7.949,18.05 -2.199,4.43 -6.59,7.109 -11.109,8.689 1.881,5 3.939,9.938 5.62,15.021 -2.438,1.069 -4.92,2.021 -7.33,3.13 -0.601,0.021 -1.199,0.04 -1.79,0.07 -4,-10.19 -7.811,-20.45 -11.76,-30.66 -1.211,-3.141 -2.731,-6.201 -3.211,-9.561 z"
   id="path279"
   clip-path="url(#clipPath8876)"
   transform="translate(-4.9661964)" /><path
   fill="#050306"
   d="m 266.66391,462.66992 c 4.75,-1.41 10.029,-0.398 14.141,2.3 4.42,3.45 5.279,9.79 3.68,14.9 -2.609,-0.67 -5.199,-1.4 -7.739,-2.261 -0.271,-2.142 0.189,-5.159 -2.17,-6.29 -1.431,-1.039 -3.24,-0.72 -4.87,-0.829 -0.5,1.21 -0.99,2.438 -1.471,3.67 4.49,3.989 10.58,6.72 12.87,12.71 2.54,7.71 -2.979,16.739 -10.93,18.26 -1.171,-0.028 -2.32,-0.04 -3.471,-0.04 -4.109,-1.028 -8.71,-2.479 -10.931,-6.42 -2.369,-3.818 -1.67,-8.529 -1.04,-12.738 2.931,0.63 5.87,1.289 8.69,2.351 0.199,2.83 -0.131,5.899 2,8.14 1.039,0 3.109,0.012 4.14,0.012 1.351,-1.882 3.021,-4 2.7,-6.45 -3.17,-4.3 -8.87,-6 -11.58,-10.722 -2.449,-5.875 -0.048,-13.913 5.981,-16.593 z"
   id="path281"
   clip-path="url(#clipPath8872)"
   transform="translate(-4.9661964)" /><path
   fill="#040105"
   d="m 365.65391,467.78992 c 3.171,-0.67 6.341,-1.358 9.55,-1.811 2.909,14.061 5.37,28.21 8.352,42.261 -2.609,0.62 -5.229,1.18 -7.88,1.6 -0.32,0.2 -0.972,0.602 -1.29,0.813 -1.301,-3.521 -1.78,-7.25 -2.54,-10.893 -2.062,-10.66 -4.172,-21.3 -6.192,-31.97 z"
   id="path283"
   clip-path="url(#clipPath8868)"
   transform="translate(-4.9661964)" /><path
   fill="#fdfdfb"
   d="m 394.08491,470.68092 c 2.591,-1.069 5.341,-1.842 8.17,-1.24 1.108,1.99 1.949,4.341 0.938,6.568 -1.688,1.65 -4.039,2.302 -6.26,2.893 -0.969,-2.742 -2.008,-5.452 -2.848,-8.221 z"
   id="path285"
   clip-path="url(#clipPath8864)"
   transform="translate(-4.9661964)" /><path
   fill="#030102"
   d="m 296.19391,475.39992 c 4.641,-7.25 16.4,-8.25 22.311,-1.979 1.802,1.74 2.632,4.16 3.649,6.392 -0.01,2.271 -0.02,4.551 -0.06,6.84 -2.971,0.108 -5.94,-0.17 -8.891,-0.47 -0.029,-1.53 -0.069,-3.062 -0.062,-4.569 -1.95,-2.12 -4.95,-3.353 -7.71,-2.08 -2.45,1.739 -2.021,5.029 -2.58,7.63 -0.43,4.25 -1.471,8.439 -1.43,12.75 0.369,0.55 1.13,1.649 1.5,2.2 2.279,1.34 4.818,1.04 7.13,-0.07 0.64,-1.521 1.278,-3.03 1.909,-4.54 2.931,0.32 5.851,0.78 8.789,1.102 -0.01,4.391 -1.479,9.358 -5.608,11.568 -6.431,3.479 -15.688,2.94 -20.33,-3.25 -3.739,-4.108 -2.84,-10.04 -1.899,-15.029 1.192,-5.475 1.131,-11.285 3.282,-16.495 z"
   id="path287"
   clip-path="url(#clipPath8860)"
   transform="translate(-4.9661964)" /><path
   fill="#020103"
   d="m 329.07491,471.30992 c 5.608,-0.79 11.278,-1.189 16.948,-1.189 2.892,-0.101 5.5,1.279 7.99,2.6 4.09,5.012 4.84,12.393 1.75,18.092 -1,1.988 -2.82,3.408 -3.87,5.358 2.37,5.562 5.99,10.512 8.75,15.91 -3.21,0.05 -6.398,0.352 -9.59,0.561 -3.58,-5.369 -6.432,-11.209 -10.4,-16.301 0.051,5.722 1.04,11.38 1.16,17.11 -3.029,0.26 -6.04,0.68 -9.08,0.779 -0.38,-3.062 -0.479,-6.149 -0.84,-9.21 -0.602,-7.341 -1.271,-14.682 -1.932,-22.021 -0.446,-3.889 -0.626,-7.789 -0.886,-11.689 z"
   id="path289"
   clip-path="url(#clipPath8856)"
   transform="translate(-4.9661964)" /><path
   fill="#fefdfb"
   d="m 339.25391,479.11992 c 3.101,-0.938 6.279,-0.391 8.949,1.399 0.359,1.198 0.739,2.42 1.121,3.63 -0.762,1.431 -1.352,3.148 -2.871,3.971 -2.039,0.6 -4.141,0.939 -6.24,1.279 -0.689,-3.39 -0.929,-6.829 -0.959,-10.279 z"
   id="path291"
   clip-path="url(#clipPath8852)"
   transform="translate(-4.9661964)" /><path
   style="fill:#ffffff;stroke-width:0.17558"
   d="m 306.24944,332.94844 c -4.97342,-0.52523 -9.96198,-3.56014 -11.78917,-7.17222 -2.15487,-4.25988 -1.52468,-9.67561 1.4733,-12.66129 3.42209,-3.40807 8.89418,-3.90672 11.67051,-1.06349 l 0.682,0.69842 -0.57802,1.46006 c -0.31791,0.80304 -0.63853,1.52873 -0.7125,1.61267 -0.074,0.0839 -0.97452,0.38093 -2.00123,0.66 -2.26859,0.61663 -3.3663,1.15213 -4.11898,2.00939 l -0.57053,0.6498 0.0608,1.68791 c 0.0711,1.97392 0.54415,3.21543 1.64448,4.31575 1.29904,1.29904 3.74278,2.08348 6.4906,2.08348 4.95672,0 8.33147,-2.51582 9.04438,-6.74243 0.50533,-2.99593 -0.71715,-6.58172 -2.80858,-8.23816 -0.99639,-0.78916 -3.86405,-2.09327 -7.54053,-3.42917 -6.34397,-2.30518 -8.52293,-3.63544 -9.68819,-5.9147 -1.56747,-3.06599 -0.96339,-6.24295 1.73257,-9.11192 1.26312,-1.34418 2.77624,-2.22362 4.7824,-2.77955 1.03223,-0.28605 1.82333,-0.36315 3.72615,-0.36315 2.36097,0 2.44933,-0.0139 3.90024,-0.61453 1.82727,-0.7564 2.4569,-0.77672 3.3786,-0.10904 0.7834,0.56749 2.16872,2.32912 2.77963,3.5347 0.65015,1.28302 1.17167,3.24108 1.20094,4.50901 l 0.0272,1.1774 -1.22252,0.75526 c -0.67239,0.41539 -1.30448,0.75478 -1.40464,0.7542 -0.10016,-5.8e-4 -0.97222,-0.63753 -1.93791,-1.41545 -2.08335,-1.67825 -3.85581,-2.81641 -5.29966,-3.40309 l -1.05209,-0.4275 -1.81838,0.66755 -1.81839,0.66755 -0.40482,1.20009 c -0.22266,0.66005 -0.40483,1.53623 -0.40483,1.94707 0,0.6395 0.0838,0.81088 0.5824,1.19119 0.90373,0.6893 3.19407,1.69872 7.40649,3.26426 5.40761,2.00972 8.25866,3.49178 9.45715,4.91611 0.73388,0.87217 2.19135,3.99463 2.57205,5.51035 1.33536,5.31647 0.69087,8.94367 -2.2151,12.46672 -1.32673,1.60845 -2.82471,2.75126 -5.07345,3.87052 -2.13682,1.06356 -3.9653,1.58882 -6.43738,1.84921 -1.81528,0.19121 -1.78023,0.19134 -3.71496,-0.013 z"
   id="path9676" /><path
   style="fill:#ffffff;stroke-width:0.17558"
   d="m 289.22069,293.28846 c -1.26487,-0.49421 -2.003,-1.14502 -2.56793,-2.26414 -1.51328,-2.99779 -1.33337,-5.30812 0.62729,-8.05575 1.13326,-1.58811 1.35115,-1.69479 3.4663,-1.69707 3.65185,-0.004 5.47789,1.38624 5.68929,4.33128 0.084,1.17061 0.0772,1.19349 -0.52528,1.76171 -0.83897,0.79125 -1.60192,0.99806 -4.35313,1.17999 -1.30368,0.0862 -2.38527,0.16063 -2.40353,0.16537 -0.0183,0.005 0.1071,0.42138 0.27858,0.92587 l 0.31178,0.91725 0.7749,-0.0507 c 0.4262,-0.0279 1.87384,-0.32211 3.21699,-0.65388 1.34315,-0.33178 2.50856,-0.60323 2.5898,-0.60323 0.30439,0 0.13191,1.19183 -0.29705,2.05263 -0.7677,1.54059 -2.39572,2.34398 -4.71885,2.32865 -0.78385,-0.005 -1.55773,-0.13038 -2.08916,-0.33802 z m 3.2661,-7.14519 c 0.68256,-0.34939 1.17596,-1.23301 1.17674,-2.10741 l 6.6e-4,-0.73207 -0.57064,0.14351 c -2.26268,0.56904 -4.87383,1.30082 -5.06649,1.41989 -0.46182,0.28541 0.81424,1.27728 2.03774,1.58391 0.65743,0.16477 1.77663,0.0225 2.42199,-0.30783 z"
   id="path9715" /><path
   style="fill:#ffffff;stroke-width:0.17558"
   d="m 279.44222,294.44522 c -0.53113,-0.11195 -0.96496,-0.28086 -0.96405,-0.37535 9e-4,-0.0945 0.1748,-0.80389 0.38644,-1.57644 0.52728,-1.92465 0.64884,-3.30408 0.40777,-4.62685 -0.24125,-1.32369 -0.85,-2.65971 -1.21189,-2.65971 -0.14205,0 -0.8078,0.25329 -1.47944,0.56287 l -1.22117,0.56287 0.0799,2.20251 0.0799,2.20251 1.00465,1.55651 c 0.55256,0.85608 0.95992,1.60125 0.90524,1.65592 -0.16844,0.16844 -1.82699,0.355 -4.33996,0.48817 l -2.40205,0.12729 -0.0561,-0.68489 c -0.0474,-0.57908 0.0862,-0.9023 0.86476,-2.09236 l 0.92083,-1.40748 -0.26551,-1.31401 c -0.14629,-0.72398 -0.31494,-2.85369 -0.37558,-4.74294 l -0.11006,-3.42894 -0.67621,-0.28879 c -1.27367,-0.54393 -1.22775,-1.307 0.23099,-3.83903 l 0.76555,-1.32879 1.29135,0.46725 c 0.71025,0.25698 1.35792,0.58617 1.43926,0.73152 0.0813,0.14535 0.24057,1.56019 0.35384,3.14409 0.11326,1.58389 0.22903,2.9072 0.25725,2.94067 0.0282,0.0335 0.59018,-0.15855 1.24878,-0.42672 1.56707,-0.63809 3.23753,-0.672 4.55642,-0.0925 1.02638,0.45096 0.93006,0.14665 1.3122,4.14555 l 0.20134,2.10696 0.88057,1.26216 0.88056,1.26216 -0.46756,0.55566 c -1.75499,2.08569 -2.83216,3.15145 -3.16693,3.1334 -0.201,-0.0108 -0.8,-0.1113 -1.33113,-0.22325 z"
   id="path9754" /><path
   style="fill:#ffffff;stroke-width:0.17558"
   d="m 262.32083,294.99545 c 0.0507,-0.21728 0.34527,-1.4222 0.65465,-2.6776 0.49186,-1.99586 0.56266,-2.58024 0.56373,-4.65286 10e-4,-2.45319 -0.18392,-3.23665 -1.01683,-4.30171 -0.27188,-0.34767 -0.27861,-0.34664 -0.67586,0.10368 -0.99392,1.1267 -2.57348,1.54976 -4.21555,1.12909 -2.3453,-0.60084 -3.90094,-2.56462 -4.12373,-5.20563 -0.28536,-3.38272 2.0483,-6.1576 5.74329,-6.82917 0.79771,-0.14498 2.25368,-0.17014 4.83666,-0.0836 l 3.69539,0.12387 0.95748,-0.82262 c 0.52661,-0.45243 1.1708,-0.93469 1.43154,-1.07167 0.69069,-0.36285 2.19609,-0.65122 2.71707,-0.52046 0.44815,0.11247 0.45,0.12059 0.37297,1.64073 -0.0898,1.77307 -0.53937,2.85428 -1.36402,3.28073 -0.28841,0.14914 -1.48861,0.35932 -2.70813,0.47425 l -2.19017,0.20641 0.0794,1.76801 c 0.0437,0.9724 0.15749,3.57716 0.25288,5.78835 l 0.17343,4.02034 0.96454,1.19379 c 0.5305,0.65659 0.96454,1.26497 0.96454,1.35197 0,0.29052 -2.21902,3.09881 -3.05605,3.86759 -1.03673,0.95219 -2.42086,1.60757 -3.39985,1.60981 -0.68791,0.002 -0.74199,-0.0308 -0.65743,-0.39334 z m 1.07298,-15.45103 c -0.0637,-0.98984 -0.16313,-2.33302 -0.22089,-2.98486 l -0.10501,-1.18517 h -1.08633 c -1.3572,0 -3.04638,0.29865 -3.5614,0.62965 -0.21527,0.13836 -0.5202,0.50062 -0.67761,0.80503 -0.29073,0.56221 -0.84338,3.2957 -0.6961,3.44299 0.0443,0.0443 1.01645,0.14554 2.16038,0.22502 1.25512,0.0872 2.45944,0.27851 3.03705,0.48241 0.52645,0.18584 1.02661,0.3484 1.11148,0.36125 0.0865,0.0131 0.10342,-0.76695 0.0384,-1.77632 z"
   id="path9793" /><path
   style="fill:#ffffff;stroke-width:0.17558"
   d="m 332.99409,295.38018 c -4.12015,-0.46557 -7.70954,-2.2339 -11.20056,-5.518 -4.44547,-4.18198 -7.50545,-9.6647 -10.57105,-18.94073 l -0.92038,-2.78493 -0.63734,0.1054 c -0.35053,0.058 -0.78399,0.10628 -0.96324,0.10734 -0.30194,0.002 -0.31771,0.12133 -0.21443,1.62605 0.0613,0.89326 0.15538,2.06902 0.20904,2.61278 l 0.0975,0.98867 1.55311,0.70743 c 1.24535,0.56726 1.53873,0.77145 1.4806,1.03051 -0.56575,2.52128 -0.8755,3.41834 -1.53626,4.44919 -1.03869,1.62044 -3.95349,4.4888 -5.78791,5.69569 -1.48602,0.97767 -1.55407,1.00312 -1.96401,0.73452 -0.73768,-0.48335 -2.37857,-2.17464 -2.37857,-2.45163 0,-0.14616 0.47375,-1.17251 1.05277,-2.28078 1.548,-2.96292 1.65529,-3.51752 1.50038,-7.75531 -0.44687,-12.22421 -0.37819,-11.40043 -1.06209,-12.7398 -0.1697,-0.33235 -0.73263,-1.2229 -1.25096,-1.97901 -0.51833,-0.75611 -0.94242,-1.43196 -0.94242,-1.50188 0,-0.24358 1.14623,-1.21413 1.84916,-1.56576 1.01212,-0.50628 2.49231,-0.73725 4.72344,-0.73705 l 1.94303,1.8e-4 0.47056,0.83785 0.47056,0.83785 -0.23331,1.57619 c -0.12832,0.86691 -0.29087,2.43461 -0.36122,3.48379 l -0.12791,1.90758 2.52436,-0.0787 c 3.06913,-0.0957 4.09416,-0.41779 5.36126,-1.68489 1.14139,-1.14139 1.69327,-2.41022 1.68743,-3.87959 -0.012,-3.03088 -2.16018,-5.5733 -5.51916,-6.5322 -1.28212,-0.366 -1.83285,-0.41779 -4.44815,-0.41827 -2.63911,-4.8e-4 -3.13739,0.0471 -4.30171,0.41064 -3.07403,0.95986 -5.51222,2.83096 -6.63375,5.09081 l -0.5521,1.11249 0.34375,0.90469 c 0.18907,0.49759 1.01099,2.01175 1.82649,3.3648 1.55935,2.58722 2.26039,4.298 2.17172,5.2998 -0.0498,0.56275 -0.13677,0.63917 -1.37003,1.2038 -1.81727,0.832 -2.60514,0.8196 -3.96993,-0.0625 -5.61337,-3.6281 -6.23528,-12.62856 -1.23634,-17.89246 2.58649,-2.72357 5.68491,-4.23075 10.38588,-5.05205 2.07043,-0.36173 6.03252,-0.3669 8.02371,-0.0105 1.96639,0.35198 4.5638,1.28369 6.24707,2.24089 5.16875,2.93922 7.26669,9.61469 4.71218,14.99376 -1.06904,2.25111 -2.46711,3.42881 -5.71853,4.81716 -0.97017,0.41426 -1.76394,0.84375 -1.76394,0.95442 0,0.37532 1.25087,3.33192 2.38235,5.63102 2.04643,4.15821 4.70547,7.72124 7.28661,9.76386 2.73124,2.1614 5.49968,3.36559 7.70575,3.35178 1.52317,-0.009 2.65473,-0.33668 5.63833,-1.63009 2.68148,-1.16244 4.06086,-1.57164 5.29785,-1.57164 1.80978,0 2.57264,0.78204 2.93375,3.00754 0.31257,1.92629 0.2771,2.07885 -0.78175,3.36254 -1.08577,1.31632 -2.94943,2.72104 -4.65063,3.50536 -2.43491,1.12259 -5.97888,1.66799 -8.78101,1.35135 z"
   id="path9832" /><path
   style="fill:#ffffff;stroke-width:0.17558"
   d="m 332.37956,283.6819 c -2.9202,-0.37536 -4.09294,-0.92041 -5.77516,-2.68403 -1.81745,-1.90541 -2.80059,-4.61807 -2.8017,-7.73044 -0.001,-3.20339 0.98568,-5.81548 2.9583,-7.83043 2.3156,-2.36528 5.91424,-3.38444 9.20866,-2.60794 4.56582,1.07617 7.0804,4.56717 7.33302,10.18044 0.0802,1.78304 0.0373,2.34078 -0.27536,3.57722 -0.68286,2.70034 -2.54725,5.22464 -4.59332,6.21915 -1.6543,0.80409 -3.98765,1.14171 -6.05444,0.87603 z m 3.80756,-5.43303 c 0.42071,-0.29155 0.84452,-0.82505 1.15071,-1.44853 0.45766,-0.93193 0.48371,-1.11434 0.46687,-3.26954 -0.0259,-3.31704 -0.43938,-4.42401 -2.01662,-5.39915 -2.28682,-1.41383 -4.98541,-0.65246 -6.13983,1.73226 -1.33469,2.7571 -0.27994,7.6741 1.8447,8.59953 0.32231,0.14039 1.23058,0.23596 2.28181,0.2401 1.60546,0.006 1.80009,-0.0304 2.41236,-0.45467 z"
   id="path9871" /><path
   style="fill:#ffffff;stroke-width:0.17558"
   d="m 346.90879,282.44615 -0.57063,-0.0708 v -1.23019 c 0,-1.06624 0.067,-1.32801 0.50312,-1.96415 0.27671,-0.40367 0.71047,-1.14455 0.9639,-1.64639 l 0.46078,-0.91243 -0.16532,-2.86253 c -0.0909,-1.5744 -0.28836,-4.79831 -0.43873,-7.16425 -0.15037,-2.36594 -0.29245,-5.09181 -0.31573,-6.0575 l -0.0423,-1.7558 -1.28163,-0.84477 c -1.69374,-1.11641 -1.83908,-1.44638 -1.18631,-2.69316 0.81631,-1.55914 3.29233,-3.50982 5.74839,-4.52876 l 0.64675,-0.26832 0.38056,1.00707 c 1.2575,3.32768 1.70151,6.58636 1.92918,14.15866 0.0961,3.19606 0.29758,6.91718 0.44776,8.26915 0.3018,2.7169 0.16198,2.42087 2.1148,4.47729 0.99309,1.04577 1.09344,1.22345 1.19927,2.12348 l 0.1155,0.98221 -0.75543,0.28539 c -1.74151,0.65794 -2.97737,0.81815 -6.11062,0.79214 -1.68995,-0.014 -3.32943,-0.0574 -3.64328,-0.0963 z"
   id="path9910" /><path
   style="fill:#ffffff;stroke-width:0.17558"
   d="m 361.87698,281.68293 c -2.87205,-0.49838 -2.73629,-0.30758 -1.68184,-2.36364 1.3445,-2.62162 1.59421,-3.39928 1.593,-4.96107 -0.002,-2.14036 -0.66826,-13.30882 -0.89527,-14.99985 -0.20392,-1.519 -0.21001,-1.53218 -0.79779,-1.72616 -0.83962,-0.2771 -1.44347,-1.15852 -1.68558,-2.46037 l -0.2045,-1.09965 0.8703,-0.77567 c 1.35809,-1.21042 2.91126,-2.27527 4.13723,-2.83648 1.97858,-0.90572 1.81743,-0.96619 2.4175,0.90712 0.28967,0.9043 0.64906,2.35001 0.79864,3.2127 0.35911,2.07112 0.80103,8.51792 0.98011,14.29808 0.0793,2.55907 0.23286,4.99958 0.34127,5.42335 0.29898,1.16869 1.04457,2.63265 1.72356,3.38421 l 0.6087,0.67375 1.86705,-0.002 1.86705,-0.002 0.9218,-1.12604 0.92179,-1.12604 v -4.63408 -4.63409 l -1.7558,-0.41449 c -1.20755,-0.28506 -1.7558,-0.49253 -1.7558,-0.66441 0,-0.13746 0.28803,-0.79804 0.64006,-1.46796 0.85591,-1.62881 2.5533,-3.19559 4.61625,-4.26106 0.85762,-0.44294 1.60495,-0.80535 1.66074,-0.80535 0.15931,0 0.54668,1.03473 0.85452,2.28254 0.42518,1.72347 0.6331,3.59199 0.83037,7.46215 0.0984,1.93138 0.2636,4.10418 0.367,4.82845 l 0.18801,1.31685 1.65153,1.66805 1.65154,1.66806 -0.10775,0.90977 -0.10775,0.90977 -1.16213,0.18653 c -1.86114,0.29873 -3.98948,0.51726 -6.27295,0.64408 l -2.12596,0.11808 -1.54676,-1.1667 -1.54677,-1.1667 -0.86926,0.97528 c -1.86964,2.0977 -4.42945,2.61742 -8.99211,1.82568 z"
   id="path9949" /><path
   style="fill:#ffffff;stroke-width:0.17558"
   d="m 401.32965,280.47613 c -0.31875,-0.0796 -0.62148,-0.18673 -0.67273,-0.23798 -0.0512,-0.0513 0.0699,-1.14681 0.26925,-2.43458 0.80596,-5.2066 0.90299,-7.30156 0.45671,-9.86076 -0.24773,-1.42058 -0.81818,-3.18892 -1.13298,-3.51211 -0.14045,-0.14419 -4.35344,0.86895 -4.62961,1.11334 -0.079,0.0699 -0.34378,1.1054 -0.58841,2.30112 -0.80408,3.93011 -0.45228,5.64244 1.68133,8.18355 1.16285,1.38494 2.12334,2.67466 2.12334,2.85115 0,0.17064 -2.00222,0.84584 -3.42381,1.15459 -1.33789,0.29057 -6.2581,0.55169 -6.98025,0.37044 -0.24617,-0.0618 -0.78362,-0.51369 -1.19432,-1.00423 l -0.74674,-0.8919 1.49989,-1.52329 c 1.31577,-1.3363 1.54644,-1.66655 1.87914,-2.69035 0.34246,-1.05385 0.3594,-1.28108 0.17458,-2.34239 -0.11257,-0.64643 -0.29444,-2.13382 -0.40415,-3.30532 l -0.19948,-2.12999 -1.46967,-0.2538 -1.46966,-0.25381 0.10274,-0.98293 c 0.0565,-0.54061 0.26308,-1.50207 0.45906,-2.13657 l 0.35632,-1.15365 2.54626,-1.69644 2.54626,-1.69644 0.61171,0.83369 c 0.33645,0.45852 0.90444,1.38592 1.2622,2.06088 l 0.65049,1.2272 0.22378,-0.52488 c 0.12309,-0.28868 0.22735,-0.65741 0.23171,-0.8194 0.0112,-0.41747 0.72212,-0.92679 2.54779,-1.82538 2.4922,-1.22666 4.13612,-1.34593 5.65056,-0.40996 1.93899,1.19836 2.71862,3.24629 2.96837,7.79726 0.0689,1.25539 0.23018,2.58017 0.35842,2.94394 0.12823,0.36377 0.71123,1.34659 1.29555,2.18405 0.58431,0.83746 1.14406,1.82597 1.24388,2.19668 l 0.1815,0.67402 -1.59006,1.8265 c -0.87453,1.00457 -1.92506,2.11837 -2.33452,2.47509 -1.37954,1.20189 -3.20984,1.81111 -4.48445,1.49266 z"
   id="path10027" /><path
   style="fill:#ffffff;stroke-width:0.17558"
   d="m 375.92337,257.65222 c -1.35672,-0.33029 -1.96573,-0.87336 -2.64619,-2.35969 -0.56689,-1.23823 -0.52997,-2.20099 0.13916,-3.62965 0.99914,-2.13324 1.74799,-2.52514 4.46867,-2.33861 l 1.61049,0.11041 0.44711,0.99631 c 1.19472,2.66219 0.97858,5.48266 -0.50987,6.65348 -0.74445,0.58558 -2.36152,0.8472 -3.50937,0.56775 z"
   id="path10066" /><path
   style="fill:#ffffff;stroke-width:0.17558"
   d="m 417.88697,288.69993 c -4.67215,-0.82407 -7.03924,-2.63256 -6.70522,-5.12287 0.19436,-1.44905 1.76119,-2.92609 3.11065,-2.93238 0.70258,-0.003 0.83011,0.0752 3.24341,1.99597 2.18968,1.74278 3.71888,2.7418 4.19691,2.7418 0.20213,0 1.20623,-0.27948 2.23134,-0.62106 1.29918,-0.43291 2.08265,-0.80836 2.58612,-1.23931 1.22993,-1.05278 1.37648,-2.69006 0.31147,-3.47978 -1.05155,-0.77973 -1.3963,-0.81168 -7.42993,-0.68856 l -5.69075,0.11613 -1.04354,-1.03266 -1.04355,-1.03266 v -1.34917 -1.34916 l 1.6736,-1.53626 1.6736,-1.53626 -1.47332,-1.50956 c -1.64324,-1.68368 -1.9194,-2.12636 -2.21182,-3.54552 -0.25032,-1.21483 -0.0805,-2.10385 0.8156,-4.26899 l 0.64739,-1.56429 1.26555,-0.58472 c 2.303,-1.06405 6.68821,-2.33163 8.1003,-2.34147 0.49892,-0.003 0.49464,-0.17519 -0.0439,-1.75855 -0.65147,-1.91539 -0.59792,-2.52054 0.33668,-3.80495 1.02653,-1.41076 1.98494,-1.90139 3.71418,-1.90139 2.4264,0 4.25757,1.45443 4.42866,3.51751 0.0769,0.92712 0.0477,1.01889 -0.50562,1.58977 -0.80502,0.83057 -1.58105,1.00156 -3.87181,0.85309 -1.07307,-0.0696 -1.90617,-0.0561 -1.90468,0.0306 10e-4,0.0849 0.89034,1.15517 1.97528,2.37849 1.08493,1.22332 2.24022,2.66722 2.5673,3.20867 1.77865,2.94435 1.05581,5.91925 -1.89899,7.81534 -1.04066,0.66779 -2.94597,1.37236 -5.7189,2.11482 -1.15882,0.31028 -2.22547,0.62859 -2.37033,0.70736 -0.3916,0.21295 -0.96633,1.73274 -0.74061,1.95846 0.28447,0.28447 2.12731,0.66461 3.23659,0.66765 0.55195,0.002 1.89514,-0.12291 2.98486,-0.27647 1.13591,-0.16008 2.69303,-0.25138 3.64932,-0.21397 1.4138,0.0553 1.84329,0.14747 2.81812,0.60474 1.32135,0.61983 1.9116,1.27588 2.87617,3.1968 0.75293,1.49944 0.74142,1.71552 -0.19655,3.69092 -1.51458,3.18976 -5.25477,5.63515 -9.84253,6.43518 -1.62012,0.28253 -4.34789,0.31414 -5.75105,0.0667 z m 4.67434,-21.34326 c 2.79649,-1.33997 2.65623,-1.02906 1.5181,-3.36509 -0.4952,-1.01642 -0.84219,-1.51184 -1.1375,-1.62412 -0.23372,-0.0889 -1.15623,-0.16156 -2.05003,-0.16156 -1.42556,0 -1.7417,0.0593 -2.57474,0.48284 -0.76759,0.39029 -1.03372,0.64876 -1.38824,1.34831 -0.58712,1.15854 -0.57867,2.06711 0.0249,2.67063 0.52416,0.52416 2.56468,1.78192 2.92728,1.80435 0.13105,0.008 1.33717,-0.5118 2.68028,-1.15536 z"
   id="path10105" /><path
   style="fill:#ffffff;stroke-width:0.17558"
   d="m 414.9757,316.37522 c -0.62611,-0.34043 -2.03158,-2.08667 -2.62409,-3.26033 -0.55431,-1.09797 -0.96882,-2.48019 -1.11911,-3.73169 -0.0997,-0.83068 -0.0919,-0.84775 0.50555,-1.09738 0.79937,-0.334 2.15879,-0.32176 3.20182,0.0288 0.46207,0.15531 1.57937,0.71591 2.48289,1.24577 4.47456,2.62408 5.33062,2.487 5.49817,-0.88036 l 0.042,-0.84463 -3.38572,-1.13061 c -1.86215,-0.62183 -4.10185,-1.46333 -4.97711,-1.86999 -1.52869,-0.71026 -1.62207,-0.78727 -2.37062,-1.9551 l -0.77925,-1.21571 0.18235,-1.35499 c 0.35905,-2.66792 1.34029,-4.33543 3.06972,-5.21665 0.82532,-0.42054 1.152,-0.47028 3.83777,-0.58432 2.69149,-0.11428 3.01576,-0.16383 3.89866,-0.59579 0.77002,-0.37674 1.1635,-0.46055 1.96364,-0.41825 l 1.00066,0.0529 0.86594,1.62322 c 0.47627,0.89277 1.16887,2.35447 1.53912,3.24823 l 0.67317,1.625 -0.44391,0.37299 c -0.50772,0.4266 -1.5284,0.77022 -2.26968,0.76411 -0.74628,-0.006 -2.28571,-0.69114 -4.04448,-1.79968 -1.52761,-0.96285 -1.56993,-0.97731 -2.5194,-0.86068 l -0.96568,0.11862 -0.0512,1.25482 -0.0512,1.2548 1.19249,0.44969 c 0.65587,0.24734 2.06161,0.73982 3.12387,1.09442 2.57862,0.86079 4.04587,1.62024 5.24156,2.71303 0.8103,0.74058 1.04469,1.08756 1.27896,1.89343 0.31822,1.09465 0.24973,1.7397 -0.46652,4.39417 -0.38268,1.41825 -0.39137,1.43113 -1.43607,2.12876 -1.8632,1.24419 -4.94073,1.94067 -7.16384,1.62124 -0.8973,-0.12893 -1.06449,-0.0916 -2.36104,0.52692 -1.51499,0.72275 -1.87964,0.78026 -2.56939,0.40522 z"
   id="path10144" /><path
   style="fill:#ffffff;stroke-width:0.17558"
   d="m 400.50456,317.03695 c -3.58202,-0.49537 -6.86115,-2.70024 -8.23524,-5.53731 -0.84152,-1.73747 -1.41755,-4.63968 -1.27809,-6.43939 0.28818,-3.71907 2.374,-7.18384 5.17635,-8.59846 3.63894,-1.83694 8.21155,-1.24046 10.89437,1.42111 2.04384,2.02766 3.0425,5.48102 2.15201,7.44167 -0.37219,0.81948 -0.96263,1.33567 -2.1115,1.84594 -1.59514,0.70849 -2.79933,0.8907 -6.52024,0.98658 l -3.60952,0.093 0.18914,1.07624 c 0.18803,1.06988 0.19476,1.0791 1.13899,1.55909 0.77637,0.39466 1.18173,0.48284 2.21957,0.48284 1.2908,0 1.68494,-0.0993 5.07597,-1.27863 0.96569,-0.33585 2.16276,-0.66595 2.66015,-0.73356 l 0.90436,-0.12292 0.12844,1.71313 c 0.11165,1.48923 0.086,1.79195 -0.1963,2.31613 -0.66152,1.22837 -2.41097,2.29745 -5.41863,3.3113 -1.68759,0.56887 -2.03688,0.61991 -3.16983,0.46323 z m -0.96569,-12.88686 c 0.82083,-0.0969 2.22328,-0.343 3.11654,-0.54684 1.61913,-0.3695 1.62411,-0.37231 1.62411,-0.91452 0,-0.87334 -0.55464,-1.72343 -1.41094,-2.16251 -0.88067,-0.45159 -2.17037,-0.5155 -3.99399,-0.19793 l -1.13198,0.19712 -0.85515,1.77815 c -0.47033,0.97798 -0.85628,1.8776 -0.85767,1.99916 -0.003,0.23254 0.39258,0.21535 3.50908,-0.15263 z"
   id="path10183" /><path
   style="fill:#ffffff;stroke-width:0.17558"
   d="m 368.48207,326.56597 c -0.28798,-1.14364 -0.24766,-1.84273 0.26663,-4.62364 l 0.46357,-2.50666 -0.29937,-4.25317 c -0.16465,-2.33925 -0.34523,-5.52196 -0.40127,-7.07269 l -0.1019,-2.81952 -1.42279,-0.69208 -1.42278,-0.69208 -0.1438,-1.03741 -0.1438,-1.03741 1.37286,-1.38557 c 1.69211,-1.70779 2.93368,-2.55181 4.42202,-3.0061 l 1.14357,-0.34906 0.88971,1.00273 0.8897,1.00273 1.6668,-0.87312 c 4.26462,-2.23394 6.88793,-1.99052 9.73081,0.90293 3.11779,3.17325 4.07908,8.21613 2.46871,12.9508 -1.45851,4.28822 -4.70939,6.72214 -8.2063,6.14402 -1.18306,-0.19559 -1.4292,-0.29239 -2.55833,-1.00606 -1.65237,-1.04438 -2.08193,-3.01104 -0.93744,-4.29194 0.46684,-0.5225 0.50548,-0.53174 2.63004,-0.62963 l 2.15624,-0.0994 0.60492,-0.7067 c 1.3212,-1.54353 1.90071,-3.68329 1.50993,-5.57524 -0.33558,-1.62473 -0.64162,-2.10255 -1.89012,-2.95102 -1.12251,-0.76286 -1.14291,-0.76878 -2.25616,-0.65472 -2.10036,0.21519 -3.34614,0.86792 -4.00371,2.09775 -0.38116,0.71287 -0.39075,0.8695 -0.37799,6.1744 0.0151,6.27352 -0.0599,5.94173 1.81697,8.04118 1.73372,1.93934 1.56137,2.47747 -1.89979,5.93181 -2.19241,2.18809 -3.22855,2.79489 -4.77235,2.79489 h -0.99816 z"
   id="path10222" /><path
   style="fill:#ffffff;stroke-width:0.17558"
   d="m 349.72385,318.57533 c -2.33351,-1.56467 -4.22846,-4.31958 -4.89695,-7.11927 -0.38213,-1.60038 -0.37776,-4.22395 0.009,-5.69114 0.62544,-2.36971 2.34446,-4.97053 4.00621,-6.06126 2.04265,-1.34075 4.99252,-1.80426 7.94257,-1.24802 4.50951,0.85027 6.77451,3.99125 7.3139,10.14249 l 0.19589,2.23389 -0.66653,1.77693 c -1.32928,3.5438 -2.92644,5.2698 -5.70199,6.16196 -0.90908,0.29221 -1.74854,0.38409 -4.12613,0.4516 l -2.98486,0.0848 z m 6.69627,-4.55559 c 1.61174,-0.7275 2.44571,-2.41899 2.43265,-4.934 -0.008,-1.60853 -0.54582,-3.63613 -1.32644,-5.00403 l -0.4008,-0.70232 -1.66238,-0.2203 c -1.97142,-0.26126 -3.3436,-0.08 -3.99543,0.52764 -0.89657,0.83586 -1.32719,2.01675 -1.4081,3.86149 -0.0914,2.08334 0.22166,4.40762 0.69797,5.18235 0.37767,0.61429 1.58218,1.40837 2.48647,1.63922 0.78666,0.20082 2.33328,0.0304 3.17606,-0.35005 z"
   id="path10261" /><path
   style="fill:#ffffff;stroke-width:0.17558"
   d="m 333.34524,320.43238 c -3.34585,-0.60968 -6.40621,-3.94044 -7.29623,-7.94093 -0.39808,-1.78926 -0.2757,-4.96353 0.24824,-6.43891 0.90336,-2.5438 2.60441,-4.67423 4.56528,-5.71766 1.04068,-0.55377 4.34693,-1.60836 5.04239,-1.60836 0.60643,0 3.18041,0.8477 4.32512,1.42441 1.4028,0.70673 2.15665,1.51223 2.4122,2.57749 0.27319,1.13877 0.0159,2.12535 -0.78012,2.99151 l -0.59215,0.64432 -0.84582,-0.32004 c -4.30043,-1.62717 -5.79043,-1.99814 -7.19242,-1.79076 -0.67549,0.0999 -0.75592,0.17246 -1.11397,1.00478 -1.16986,2.71941 -1.32696,5.43258 -0.4172,7.20505 0.37342,0.72753 1.28009,1.69734 1.89022,2.02186 1.03222,0.54901 2.87015,0.38811 5.37302,-0.47039 1.20711,-0.41405 2.68006,-0.79396 3.27323,-0.84427 1.07444,-0.0911 1.07889,-0.0896 1.19,0.41631 0.23809,1.08404 0.16766,3.12434 -0.12739,3.69 -0.38123,0.73088 -2.4172,2.24042 -3.63173,2.69269 -1.88414,0.70162 -4.1159,0.86501 -6.32267,0.4629 z"
   id="path10300" /></svg>
